<?xml version="1.0" standalone="no"?>
<!DOCTYPE svg PUBLIC "-//W3C//DTD SVG 1.1//EN" "http://www.w3.org/Graphics/SVG/1.1/DTD/svg11.dtd" >
<svg>
<metadata>
Created by FontForge 20120731 at Fri Nov  4 07:41:27 2016
 By ,,,
Copyright (c) 2005-2006 by Joshua Darden, Inc. All rights reserved.
</metadata>
<defs>
<font id="Omnes-Medium" horiz-adv-x="500" >
  <font-face 
    font-family="Omnes"
    font-weight="500"
    font-stretch="normal"
    units-per-em="1000"
    panose-1="2 0 6 6 4 0 0 2 0 4"
    ascent="800"
    descent="-200"
    x-height="481"
    cap-height="651"
    bbox="-82 -230.286 1067 894"
    underline-thickness="20"
    underline-position="-113"
    unicode-range="U+0020-FB02"
  />
<missing-glyph 
 />
    <glyph glyph-name=".notdef" 
 />
    <glyph glyph-name=".null" horiz-adv-x="0" 
 />
    <glyph glyph-name="nonmarkingreturn" horiz-adv-x="170" 
 />
    <glyph glyph-name="space" unicode=" " horiz-adv-x="170" 
 />
    <glyph glyph-name="exclam" unicode="!" horiz-adv-x="260" 
d="M124 188q-11 0 -16 8.5t-8 25.5l-30 370q-4 32 9.5 46.5t37.5 14.5h25q26 0 39.5 -14.5t8.5 -46.5l-30 -370q-2 -17 -7 -25.5t-18 -8.5h-11v0zM123 -7q-54 0 -54 54v12q0 55 54 55h13q55 0 55 -55v-12q0 -54 -55 -54h-13v0z" />
    <glyph glyph-name="quotedbl" unicode="&#x22;" horiz-adv-x="389" 
d="M271 375q-12 0 -17 7.5t-7 23.5l-24 182q-4 35 9.5 49.5t45.5 14.5t45.5 -14.5t8.5 -49.5l-23 -182q-2 -16 -7.5 -23.5t-17.5 -7.5h-13v0zM104 375q-12 0 -17 7.5t-7 23.5l-24 182q-5 35 8.5 49.5t45.5 14.5t46 -14.5t9 -49.5l-24 -182q-2 -16 -7 -23.5t-17 -7.5h-13v0z
" />
    <glyph glyph-name="numbersign" unicode="#" horiz-adv-x="663" 
d="M386 -3q-2 -4 -14 -4q-14 0 -30.5 12t-16.5 41q0 7 2 17t5 21l25 79h-149l-51 -166q0 -4 -13 -4q-7 0 -15.5 3t-15.5 9t-12 16t-5 25q0 14 8 38l24 79h-76q-43 0 -43 34v10q0 35 43 35h100l50 163h-75q-43 0 -43 35v9q0 35 43 35h100l51 166q0 4 13 4q7 0 15.5 -3
t15.5 -9t12 -16t5 -25q0 -12 -8 -38q-7 -21 -12 -39q-5 -15 -8.5 -27.5t-4.5 -12.5h150l50 166q2 4 14 4q14 0 30.5 -12t16.5 -41q0 -12 -8 -38l-24 -79h76q43 0 43 -34v-10q0 -35 -43 -35h-100l-50 -163h75q43 0 43 -34v-10q0 -35 -43 -35h-99zM433 407h-152l-51 -167h152z
" />
    <glyph glyph-name="dollar" unicode="$" horiz-adv-x="550" 
d="M230 -6q-45 5 -81.5 18.5t-61.5 31t-38.5 38t-13.5 38.5q0 13 6.5 23.5t15 17.5t15.5 10.5t8 1.5q23 -33 62.5 -59t91.5 -34v211q-33 8 -66 20.5t-59 33t-42 51t-16 75.5q0 35 13 65.5t37 54t57.5 39t73.5 21.5v49q0 26 10 36.5t30 10.5h7q21 0 30.5 -10.5t9.5 -36.5v-47
q43 -4 76.5 -15.5t56.5 -27.5t35 -34t12 -35q0 -13 -7 -24t-15.5 -18t-15.5 -10.5t-8 -2.5q-22 31 -58 53t-81 29v-203q36 -9 71 -21.5t63.5 -33.5t46 -52.5t17.5 -77.5q0 -75 -53 -125t-142 -61v-49q0 -26 -10 -37t-31 -11h-6q-21 0 -30.5 11t-9.5 37v49v0zM237 566
q-40 -9 -64 -33.5t-24 -59.5q0 -38 23.5 -57t64.5 -32v182v0zM311 80q46 8 73 33.5t27 62.5q0 41 -28.5 61.5t-71.5 34.5v-192v0z" />
    <glyph glyph-name="percent" unicode="%" horiz-adv-x="735" 
d="M184 344q-33 0 -61.5 11.5t-49.5 32t-32.5 48t-11.5 59.5v9q0 32 12 60t33 48.5t49.5 32.5t61.5 12q34 0 62.5 -11.5t49.5 -31.5t32.5 -48t11.5 -60v-9q0 -32 -12 -60t-33 -48.5t-50 -32.5t-62 -12zM122 -9q-1 -2 -8.5 -0.5t-16 6.5t-15 13t-6.5 18q0 14 6 25t23 28
l503 579q2 2 9 0.5t15.5 -6t15 -12.5t6.5 -19t-6.5 -24t-21.5 -30l-504 -578v0zM550 -6q-34 0 -62.5 11.5t-49.5 32t-32.5 48t-11.5 59.5v9q0 32 12 60t33 48.5t50 32.5t62 12t61.5 -11.5t49.5 -31.5t32.5 -48t11.5 -60v-9q0 -32 -12 -60t-33 -48.5t-49.5 -32.5t-61.5 -12z
M185 407q35 0 57 24t22 62v15q0 38 -22.5 62.5t-57.5 24.5t-57 -24t-22 -63v-15q0 -38 22.5 -62t57.5 -24zM551 57q34 0 56.5 24t22.5 62v15q0 38 -22.5 62.5t-57.5 24.5t-57 -24t-22 -63v-15q0 -38 22.5 -62t57.5 -24z" />
    <glyph glyph-name="ampersand" unicode="&#x26;" horiz-adv-x="667" 
d="M271 394q62 17 90.5 43t28.5 66q0 35 -23.5 59t-60.5 24q-43 0 -65 -25.5t-22 -61.5q0 -32 13.5 -56t38.5 -49zM231 320q-51 -17 -82.5 -47.5t-31.5 -82.5q0 -60 40.5 -92.5t104.5 -32.5q49 0 90 22t73 58zM476 214q17 30 28 62t21 69q9 32 23 44t34 12q11 0 19.5 -4
t14 -8.5t8 -9t2.5 -6.5q-27 -122 -90 -214l136 -122q1 -1 -1 -7.5t-8.5 -14t-17.5 -14t-28 -6.5q-13 0 -29.5 5t-35.5 25l-69 66q-45 -50 -102 -77t-126 -27q-52 0 -95.5 13t-74 37.5t-47.5 61t-17 83.5q0 72 43.5 117.5t119.5 68.5q-25 26 -41.5 58.5t-16.5 72.5
q0 34 13 63.5t37 51t57.5 34t73.5 12.5q37 0 67.5 -11.5t53 -31.5t35 -48t12.5 -61q0 -57 -39 -96.5t-111 -61.5z" />
    <glyph glyph-name="quotesingle" unicode="'" horiz-adv-x="222" 
d="M104 375q-12 0 -17 7.5t-7 23.5l-24 182q-5 35 8.5 49.5t45.5 14.5t46 -14.5t9 -49.5l-24 -182q-2 -16 -7 -23.5t-17 -7.5h-13v0z" />
    <glyph glyph-name="parenleft" unicode="(" horiz-adv-x="375" 
d="M324 -198q-46 0 -96 30.5t-91 86t-67.5 134t-26.5 174.5q0 93 26.5 171.5t67.5 134.5t91 87.5t96 31.5t46 -40q0 -12 -6.5 -22.5t-8.5 -12.5q-50 -11 -89.5 -43.5t-66.5 -79t-41 -105t-14 -121.5q0 -66 14 -124.5t41 -105.5t66.5 -78.5t89.5 -43.5q2 -1 8.5 -11.5
t6.5 -22.5q0 -40 -46 -40z" />
    <glyph glyph-name="parenright" unicode=")" horiz-adv-x="375" 
d="M51 -198q-46 0 -46 40q0 12 6.5 22.5t8.5 11.5q50 12 89.5 43.5t66.5 78.5t41 105.5t14 124.5q0 63 -14 121.5t-41 105t-66.5 79t-89.5 43.5q-2 2 -8.5 12.5t-6.5 22.5q0 40 46 40q47 0 96.5 -31.5t90.5 -87.5t67.5 -134.5t26.5 -171.5q0 -96 -26.5 -174.5t-67.5 -134
t-90.5 -86t-96.5 -30.5z" />
    <glyph glyph-name="asterisk" unicode="*" horiz-adv-x="392" 
d="M167 628q2 20 9 25.5t20 5.5h4q12 0 19.5 -5.5t9.5 -25.5l4 -48q2 -18 2.5 -33t0.5 -16l96 24q18 3 26.5 -2t12.5 -16l1 -4q4 -14 0.5 -21.5t-20.5 -15.5l-92 -38l53 -85q10 -17 7 -26t-13 -16l-3 -2q-9 -7 -18.5 -6.5t-22.5 14.5l-66 77l-65 -77q-14 -14 -22.5 -14.5
t-19.5 6.5l-3 2q-11 6 -13 15.5t7 26.5l52 85l-90 38q-17 8 -20.5 15.5t0.5 21.5l1 4q4 12 12 16.5t26 1.5l97 -24z" />
    <glyph glyph-name="plus" unicode="+" horiz-adv-x="538" 
d="M82 224q-24 0 -33.5 10t-9.5 27v6q0 17 9.5 27t33.5 10h145v148q0 23 10.5 33t27.5 10h8q17 0 27.5 -10t10.5 -33v-148h145q24 0 33.5 -10t9.5 -27v-6q0 -17 -9.5 -27t-33.5 -10h-145v-157q0 -23 -10.5 -33t-27.5 -10h-8q-17 0 -27.5 10t-10.5 33v157h-145z" />
    <glyph glyph-name="comma" unicode="," horiz-adv-x="222" 
d="M63 -122q-5 -6 -14.5 -7.5t-18.5 1.5t-14.5 10.5t-2.5 18.5l54 170q7 23 16 35t35 12h9q19 0 30.5 -12t11.5 -35v-5q0 -13 -4.5 -27t-18.5 -33l-83 -128v0z" />
    <glyph glyph-name="hyphen" unicode="-" horiz-adv-x="393" 
d="M84 198q-21 0 -32 10.5t-11 27.5v14q0 17 11 28t32 11h225q22 0 32.5 -11t10.5 -28v-14q0 -17 -10.5 -27.5t-32.5 -10.5h-225v0z" />
    <glyph glyph-name="hyphen" unicode="&#xad;" horiz-adv-x="393" 
d="M84 198q-21 0 -32 10.5t-11 27.5v14q0 17 11 28t32 11h225q22 0 32.5 -11t10.5 -28v-14q0 -17 -10.5 -27.5t-32.5 -10.5h-225v0z" />
    <glyph glyph-name="period" unicode="." horiz-adv-x="222" 
d="M104 -7q-54 0 -54 54v12q0 55 54 55h13q55 0 55 -55v-12q0 -54 -55 -54h-13v0z" />
    <glyph glyph-name="slash" unicode="/" horiz-adv-x="339" 
d="M60 -202q-8 0 -18 1.5t-18.5 6.5t-14 14t-5.5 24q0 14 8 40l238 766q0 1 6 2.5t14 1.5t17.5 -1.5t18 -6t14 -14t5.5 -24.5q0 -13 -8 -40l-237 -766q0 -2 -6 -3t-14 -1z" />
    <glyph glyph-name="zero" unicode="0" horiz-adv-x="635" 
d="M317 -13q-63 0 -113 21t-84.5 60.5t-53 95.5t-18.5 126v66q0 70 18.5 126.5t53.5 96t85 60.5t112 21q63 0 113 -21t85 -60.5t53.5 -95.5t18.5 -126v-65q0 -70 -18.5 -126.5t-53.5 -96t-85 -61t-113 -21.5zM317 74q81 0 124 55t43 158v72q0 103 -44 159.5t-123 56.5
t-122 -55.5t-43 -158.5v-73q0 -103 43.5 -158.5t121.5 -55.5z" />
    <glyph glyph-name="one" unicode="1" horiz-adv-x="366" 
d="M167 506q-27 -27 -67 -27q-35 0 -57.5 19t-22.5 50q0 13 4 22.5t9.5 16.5t10 10t5.5 2q11 -11 25 -17t34 -6q32 0 54.5 22t26.5 54h35q45 0 45 -47v-563q0 -47 -45 -47h-13q-44 0 -44 47v464v0z" />
    <glyph glyph-name="two" unicode="2" horiz-adv-x="535" 
d="M462 88q49 0 49 -40v-6q0 -42 -49 -42h-360q-34 0 -49 12.5t-15 43.5v25q0 50 17.5 87t46 65t64.5 49t72 39l61 30.5t51.5 31t35.5 36.5t13 46q0 51 -34.5 79t-97.5 28q-36 0 -62.5 -10t-45.5 -27t-31 -39.5t-19 -47.5q0 -1 -10.5 -1t-23.5 4.5t-23.5 15.5t-10.5 31
q0 25 15 53.5t44 52.5t73 40t101 16q106 0 166 -51t60 -142q0 -43 -16 -74.5t-42.5 -55.5t-60.5 -42t-71 -35q-36 -16 -67.5 -32.5t-55.5 -36t-38 -44.5t-15 -59h328z" />
    <glyph glyph-name="three" unicode="3" horiz-adv-x="546" 
d="M379 348q62 -21 94 -63.5t32 -103.5q0 -91 -66 -142.5t-185 -51.5q-59 0 -103.5 14.5t-74.5 36.5t-45 47t-15 47q0 20 9 31.5t20.5 16.5t21 6t9.5 -1q19 -56 66 -85t112 -29q69 0 109.5 30.5t40.5 83.5q0 114 -148 114h-46q-27 0 -38 10t-11 27v6q0 20 12 28.5t35 8.5h60
q60 0 90.5 26t30.5 72q0 47 -36 73.5t-100 26.5q-63 0 -101.5 -28t-56.5 -70q-1 -2 -10.5 -1t-20.5 6.5t-20 16.5t-9 29q0 21 15.5 43.5t44 42t69 32t90.5 12.5q112 0 173.5 -45.5t61.5 -129.5q0 -105 -110 -137z" />
    <glyph glyph-name="four" unicode="4" horiz-adv-x="594" 
d="M365 255v313l-238 -313h238zM529 257q45 0 45 -40v-5q0 -39 -45 -39h-71v-131q0 -47 -44 -47h-11q-20 0 -31 13.5t-11 33.5v131h-265q-29 0 -46 13.5t-17 34.5v22q0 17 7.5 30.5t21.5 33.5l231 299q10 14 18 22.5t17.5 14t22 7.5t30.5 2q42 0 59.5 -15.5t17.5 -51.5v-328
h71z" />
    <glyph glyph-name="five" unicode="5" horiz-adv-x="538" 
d="M143 374q29 14 62 21.5t71 7.5q53 0 95.5 -14.5t73 -41t47 -64t16.5 -84.5q0 -48 -17.5 -87.5t-50 -67t-79 -42.5t-104.5 -15q-53 0 -95.5 12.5t-72.5 31t-46.5 41t-16.5 43.5q0 13 7 23.5t16 17t17 9.5t9 1q27 -45 73 -70.5t109 -25.5q72 0 113.5 34.5t41.5 93.5
t-38.5 92t-107.5 33q-53 0 -89 -12t-62 -32q-63 4 -63 64v246q0 26 14 42t39 16h325q48 0 48 -42v-5q0 -41 -48 -41h-287v-185v0z" />
    <glyph glyph-name="six" unicode="6" horiz-adv-x="587" 
d="M151 337q31 29 79 50t104 21q50 0 90 -13.5t69 -38.5t44.5 -61.5t15.5 -81.5v-5q0 -48 -18 -88.5t-49.5 -70t-75.5 -46t-97 -16.5q-64 0 -113.5 21.5t-83.5 61t-51 95t-17 122.5v66q0 72 19 128.5t54.5 96.5t85.5 61t113 21q51 0 89.5 -11t64.5 -27.5t39 -37t13 -39.5
q0 -15 -8 -25t-17.5 -16t-17.5 -8t-9 -1q-23 35 -58.5 57.5t-90.5 22.5q-85 0 -130 -56t-45 -162l1 -20v0zM152 257q4 -89 44.5 -138.5t112.5 -49.5q64 0 104.5 36t40.5 95v6q0 60 -36.5 92.5t-105.5 32.5q-47 0 -89 -21t-71 -53z" />
    <glyph glyph-name="seven" unicode="7" horiz-adv-x="530" 
d="M397 555h-329q-46 0 -46 42v7q0 43 46 43h378q20 0 32.5 -4t19.5 -10.5t9.5 -15.5t2.5 -19v-8q0 -17 -9.5 -36t-20.5 -39l-261 -484q-11 -21 -25 -28.5t-28 -7.5q-13 0 -24 5t-19 12t-12 13t-2 9z" />
    <glyph glyph-name="eight" unicode="8" horiz-adv-x="583" 
d="M292 67q75 0 113.5 30t38.5 83q0 52 -40.5 83.5t-112.5 31.5q-73 0 -113 -31t-40 -84q0 -50 40.5 -81.5t113.5 -31.5zM292 369q65 0 100 27.5t35 76.5q0 48 -35 78t-101 30q-68 0 -102 -29t-34 -79q0 -47 36 -75.5t101 -28.5zM168 333q-57 19 -84.5 56.5t-27.5 89.5
q0 40 17 73.5t47.5 57.5t74 37t97.5 13q109 0 171 -48.5t62 -130.5q0 -52 -27 -89.5t-83 -57.5q66 -20 98 -62t32 -100q0 -40 -18 -74t-51.5 -58.5t-80.5 -38t-104 -13.5q-59 0 -106 13t-80 37t-50.5 58t-17.5 76q0 57 33 98.5t98 62.5z" />
    <glyph glyph-name="nine" unicode="9" horiz-adv-x="587" 
d="M437 303q-31 -29 -78.5 -50t-104.5 -21q-100 0 -159.5 51.5t-59.5 143.5v4q0 48 18 89.5t49.5 72.5t76 48.5t96.5 17.5q62 0 110.5 -20.5t83 -58.5t52.5 -93.5t18 -125.5v-69q0 -152 -71 -228.5t-206 -76.5q-51 0 -89.5 10.5t-64 26.5t-38.5 35.5t-13 37.5q0 14 6.5 24.5
t14.5 17t14.5 9t7.5 1.5q26 -35 64.5 -56.5t93.5 -21.5q91 0 135.5 52.5t44.5 164.5l-1 15v0zM436 383q-3 92 -43 143.5t-115 51.5q-31 0 -57.5 -10.5t-46 -29.5t-30 -44.5t-10.5 -54.5v-5q0 -60 36 -92.5t105 -32.5q47 0 89.5 21t71.5 53z" />
    <glyph glyph-name="colon" unicode=":" horiz-adv-x="246" 
d="M116 318q-54 0 -54 54v12q0 54 54 54h13q55 0 55 -54v-12q0 -54 -55 -54h-13v0zM116 -7q-54 0 -54 54v12q0 55 54 55h13q55 0 55 -55v-12q0 -54 -55 -54h-13v0z" />
    <glyph glyph-name="semicolon" unicode=";" horiz-adv-x="246" 
d="M116 318q-54 0 -54 54v12q0 54 54 54h13q55 0 55 -54v-12q0 -54 -55 -54h-13v0zM75 -122q-5 -6 -14.5 -7.5t-18.5 1.5t-14.5 10.5t-2.5 18.5l54 170q7 23 16 35t35 12h9q19 0 30.5 -12t11.5 -35v-5q0 -13 -4.5 -27t-18.5 -33l-83 -128v0z" />
    <glyph glyph-name="less" unicode="&#x3c;" horiz-adv-x="464" 
d="M143 265l227 -117q30 -16 40 -32t9 -31q-2 -21 -13 -34.5t-15 -11.5l-317 170q-14 8 -22 19t-8 36t8 36t22 19l317 171q2 0 6 -3.5t8.5 -9.5t8.5 -14.5t5 -18.5q1 -15 -9 -31t-40 -31z" />
    <glyph glyph-name="equal" unicode="=" horiz-adv-x="538" 
d="M94 334q-24 0 -33.5 11t-9.5 28v9q0 17 9.5 28t33.5 11h350q24 0 33.5 -11t9.5 -28v-9q0 -17 -9.5 -28t-33.5 -11h-350v0zM94 100q-24 0 -33.5 11t-9.5 28v10q0 17 9.5 28t33.5 11h350q24 0 33.5 -11t9.5 -28v-10q0 -17 -9.5 -28t-33.5 -11h-350v0z" />
    <glyph glyph-name="greater" unicode="&#x3e;" horiz-adv-x="463" 
d="M93 382q-29 15 -39.5 31t-9.5 31q2 20 13.5 33.5t15.5 12.5l316 -171q14 -8 22 -19t8 -36t-8 -36t-22 -19l-316 -170q-5 -2 -16 11.5t-13 34.5q-1 15 9.5 31t39.5 32l227 117z" />
    <glyph glyph-name="question" unicode="?" horiz-adv-x="479" 
d="M215 185q-19 0 -31 8.5t-11 25.5q1 46 15.5 76.5t34.5 50.5t43 34t43 28t33 30.5t13 42.5q0 43 -29.5 68.5t-83.5 25.5q-36 0 -61 -11t-42 -29t-26.5 -41t-12.5 -46q0 -1 -11 -0.5t-24 5.5t-24 16.5t-11 31.5q0 23 12.5 50.5t39 51.5t67 40t95.5 16q49 0 87.5 -12.5
t65.5 -35t41.5 -54t14.5 -68.5q0 -41 -14.5 -68t-36 -46.5t-46.5 -35t-47 -33t-37 -41t-16 -58.5q-2 -11 -13 -16.5t-28 -5.5zM210 -7q-54 0 -54 54v12q0 55 54 55h14q55 0 55 -55v-12q0 -54 -55 -54h-14v0z" />
    <glyph glyph-name="at" unicode="@" horiz-adv-x="743" 
d="M436 352q-10 22 -28.5 36t-45.5 14q-35 0 -55.5 -23.5t-20.5 -61.5q0 -39 21 -62.5t54 -23.5q31 0 53 19.5t22 51.5v50zM437 419q5 28 18 37.5t30 9.5q13 0 20.5 -4.5t7.5 -6.5v-157q0 -38 13 -58t45 -20q38 0 57.5 38t19.5 101q0 55 -18.5 100.5t-53.5 78.5t-85.5 51
t-114.5 18q-61 0 -112 -21t-87.5 -58.5t-57 -90t-20.5 -114.5q0 -61 21 -113t59 -90t90 -59t115 -21q50 0 92.5 14t71.5 35q8 6 16 9.5t18 3.5q8 0 14.5 -5t10.5 -11.5t6 -12t0 -7.5q-36 -32 -96 -55.5t-133 -23.5q-76 0 -139 24.5t-107.5 68.5t-69 106t-24.5 137
q0 74 24.5 136t68.5 106.5t105 69.5t134 25q76 0 136.5 -21.5t103 -61t65 -95t22.5 -122.5q0 -95 -39 -145.5t-113 -50.5q-42 0 -70 17.5t-37 47.5q-15 -30 -41.5 -47t-61.5 -17q-30 0 -54.5 11.5t-42 31.5t-27.5 48t-10 61q0 34 10 61.5t28 47.5t43 31t55 11
q31 0 55.5 -14.5t38.5 -34.5z" />
    <glyph glyph-name="A" unicode="A" horiz-adv-x="630" 
d="M417 273l-104 274l-105 -274h209zM183 190l-57 -148q-10 -27 -25 -37t-32 -10q-23 0 -40.5 12t-15.5 19l230 594q6 16 21 24.5t50 8.5q36 0 50.5 -8.5t20.5 -24.5l232 -594q1 -3 -3.5 -8t-12.5 -10.5t-18.5 -9t-22.5 -3.5q-17 0 -33.5 10t-27.5 38l-57 147h-259z" />
    <glyph glyph-name="B" unicode="B" horiz-adv-x="618" 
d="M124 0q-25 0 -40 16t-15 42v531q0 26 15 42t40 16h213q106 0 162 -43t56 -125q0 -53 -29 -87.5t-85 -51.5q72 -17 106 -59.5t34 -99.5q0 -91 -59 -136t-187 -45h-211v0zM329 365q57 0 88 27.5t31 74.5q0 48 -29 72.5t-92 24.5h-156v-199h158zM333 83q78 0 110 24.5
t32 81.5q0 51 -33.5 76.5t-105.5 25.5h-165v-208h162z" />
    <glyph glyph-name="C" unicode="C" horiz-adv-x="657" 
d="M370 -13q-72 0 -132 24.5t-103 69t-67 106t-24 135.5t24 136t67.5 107t104 70t133.5 25q61 0 106.5 -15t76 -36.5t46 -45t15.5 -40.5q0 -18 -9 -29.5t-20 -18t-20.5 -8t-10.5 -0.5q-28 49 -78 74.5t-105 25.5q-49 0 -90 -17.5t-70.5 -50t-46 -77t-16.5 -98.5t17 -98.5
t47 -77t71 -50.5t90 -18q66 0 116.5 30t70.5 83q1 2 11 0.5t22 -8t21.5 -18t9.5 -29.5t-16 -44t-48 -49.5t-80 -40.5t-113 -17z" />
    <glyph glyph-name="D" unicode="D" horiz-adv-x="677" 
d="M126 0q-24 0 -40.5 17t-16.5 40v532q0 26 16 42t39 16h158q83 0 148 -22t110 -63.5t69 -101t24 -135.5t-24.5 -136t-70.5 -102t-112 -64.5t-149 -22.5h-151v0zM279 89q119 0 184.5 61.5t65.5 173.5q0 111 -65.5 172.5t-183.5 61.5h-109v-469h108z" />
    <glyph glyph-name="E" unicode="E" horiz-adv-x="587" 
d="M124 0q-25 0 -40 15.5t-15 41.5v532q0 26 15 42t40 16h375q48 0 48 -43v-6q0 -43 -48 -43h-327v-181h253q48 0 48 -41v-3q0 -43 -48 -43h-253v-196h333q47 0 47 -41v-5q0 -45 -47 -45h-381v0z" />
    <glyph glyph-name="F" unicode="F" horiz-adv-x="543" 
d="M112 -4q-43 0 -43 54v539q0 26 15 42t40 16h349q48 0 48 -42v-6q0 -43 -48 -43h-302v-206h224q48 0 48 -41v-4q0 -42 -48 -42h-222v-220q0 -47 -45 -47h-16v0z" />
    <glyph glyph-name="G" unicode="G" horiz-adv-x="712" 
d="M565 91q-30 -48 -85 -75.5t-130 -27.5q-70 0 -126.5 25t-96.5 69.5t-61.5 106t-21.5 133.5q0 74 24.5 136t68 107t105 70t134.5 25q59 0 104.5 -14t77 -34.5t47.5 -43.5t16 -42q0 -18 -8.5 -29t-18.5 -17t-19 -7t-10 0q-30 48 -81.5 73t-105.5 25q-50 0 -92 -18t-72 -51
t-47 -79t-17 -102q0 -54 15 -100t43.5 -79.5t69.5 -52t92 -18.5q39 0 72.5 10.5t59 29.5t41.5 45.5t21 58.5v42h-152q-26 0 -39 9t-13 30v5q0 22 13 31t39 9h188q28 0 41.5 -16t13.5 -43v-276q0 -2 -10 -6t-24 -4q-11 0 -21.5 3.5t-18 12.5t-12 25.5t-4.5 41.5v12v0z" />
    <glyph glyph-name="H" unicode="H" horiz-adv-x="685" 
d="M112 -4q-43 0 -43 47v561q0 47 43 47h15q45 0 45 -47v-235h341v235q0 47 43 47h15q45 0 45 -47v-561q0 -47 -45 -47h-15q-43 0 -43 47v236h-341v-236q0 -47 -45 -47h-15v0z" />
    <glyph glyph-name="I" unicode="I" horiz-adv-x="259" 
d="M122 -4q-44 0 -44 47v561q0 47 44 47h14q45 0 45 -47v-561q0 -47 -45 -47h-14v0z" />
    <glyph glyph-name="J" unicode="J" horiz-adv-x="464" 
d="M195 -13q-39 0 -70.5 9.5t-54 24.5t-35 33.5t-12.5 36.5q0 15 7 26t15.5 18t16 10.5t8.5 1.5q17 -32 47 -51.5t70 -19.5q60 0 85.5 32.5t25.5 110.5v385q0 47 44 47h15q44 0 44 -47v-386q0 -118 -50.5 -174.5t-155.5 -56.5z" />
    <glyph glyph-name="K" unicode="K" horiz-adv-x="582" 
d="M172 43q0 -47 -45 -47h-15q-43 0 -43 47v561q0 47 43 47h15q45 0 45 -47v-260l259 274q17 20 30 26.5t27 6.5q17 0 28 -6.5t17.5 -15t9 -15.5t1.5 -9l-258 -274l265 -290q2 -2 -1 -9t-10 -15t-19 -14.5t-29 -6.5t-30 6.5t-26 22.5l-264 289v-271z" />
    <glyph glyph-name="L" unicode="L" horiz-adv-x="528" 
d="M124 0q-25 0 -40 15.5t-15 41.5v547q0 47 43 47h15q45 0 45 -47v-511h281q48 0 48 -44v-4q0 -45 -48 -45h-329v0z" />
    <glyph glyph-name="M" unicode="M" horiz-adv-x="749" 
d="M109 -4q-40 0 -40 47v551q0 26 16 41.5t43 15.5h27q30 0 42.5 -12t24.5 -40l153 -345l154 345q12 29 24.5 40.5t41.5 11.5h25q28 0 44.5 -15.5t16.5 -41.5v-551q0 -47 -43 -47h-14q-41 0 -41 47v475l-143 -322q-8 -20 -20.5 -32t-45.5 -12q-17 0 -27.5 3t-17.5 9
t-11.5 14t-9.5 18l-141 319v-472q0 -23 -9.5 -35t-32.5 -12h-16v0z" />
    <glyph glyph-name="N" unicode="N" horiz-adv-x="682" 
d="M111 -4q-42 0 -42 47v550q0 26 12.5 42t36.5 16h17q23 0 35.5 -9.5t26.5 -29.5l320 -454v446q0 47 43 47h12q42 0 42 -47v-550q0 -27 -12.5 -42.5t-35.5 -15.5h-8q-23 0 -33 7t-22 24l-337 477v-461q0 -47 -44 -47h-11v0z" />
    <glyph glyph-name="O" unicode="O" horiz-adv-x="741" 
d="M370 -13q-72 0 -132.5 24.5t-103.5 69t-67 106t-24 135.5t24.5 136t68 107t103.5 70t132 25t132.5 -24.5t103.5 -69t67 -106.5t24 -136t-24 -136t-67.5 -106.5t-104 -69.5t-132.5 -25zM371 78q49 0 90 18t70.5 50t46 77t16.5 99t-16.5 99.5t-46.5 78t-71 51t-90 18.5
t-90 -18t-70.5 -50t-46 -77.5t-16.5 -99.5t16.5 -99t46.5 -78t71 -51t90 -18z" />
    <glyph glyph-name="P" unicode="P" horiz-adv-x="569" 
d="M289 316q75 0 112.5 31.5t37.5 91.5q0 123 -149 123h-119v-246h118zM172 43q0 -21 -11 -34t-34 -13h-15q-43 0 -43 47v546q0 26 15 42t40 16h167q121 0 186 -53t65 -153q0 -103 -64.5 -155.5t-190.5 -52.5h-115v-190z" />
    <glyph glyph-name="Q" unicode="Q" horiz-adv-x="741" 
d="M392 217q-14 14 -17 33t11 31l7 6q14 14 31 9.5t31 -19.5l101 -104q40 62 40 149q0 54 -16.5 99t-46.5 78t-71 51.5t-91 18.5q-49 0 -90.5 -18t-71 -50.5t-46 -77.5t-16.5 -99t16.5 -99t46.5 -78t71.5 -51t90.5 -18q70 0 123 34zM624 107q0 1 12.5 -11.5t26.5 -27.5
l38 -40q1 -1 -2.5 -8t-11 -14t-19 -13t-26.5 -6q-14 0 -29 8t-31 25l-24 25q-40 -28 -87 -43t-101 -15q-72 0 -132 24.5t-103.5 69t-67.5 106t-24 135.5t24.5 136t68 107t104 70t132.5 25t132 -24.5t103 -69t67 -106.5t24 -136q0 -63 -19.5 -118t-54.5 -99z" />
    <glyph glyph-name="R" unicode="R" horiz-adv-x="589" 
d="M306 334q72 0 106 30.5t34 83.5q0 114 -143 114h-133v-228h136zM546 38q2 -2 -1 -9t-11 -14.5t-20 -13t-28 -5.5q-20 0 -35 9t-32 31l-177 217h-71v-210q0 -21 -11 -34t-34 -13h-14q-43 0 -43 53v540q0 26 15 42t40 16h184q119 0 180.5 -48.5t61.5 -145.5
q0 -83 -49 -132.5t-144 -57.5z" />
    <glyph glyph-name="S" unicode="S" horiz-adv-x="554" 
d="M275 -13q-58 0 -103.5 12.5t-76.5 32t-47 42t-16 42.5q0 13 7 23.5t15.5 18t16 11.5t8.5 2q28 -41 78 -70t117 -29q68 0 104.5 26.5t36.5 74.5q0 27 -13 45t-35.5 30t-52 20t-61.5 15q-37 9 -74 21t-65.5 33t-46.5 53.5t-18 81.5q0 41 17 75.5t48 59.5t73.5 39t94.5 14
q54 0 95.5 -11.5t69.5 -28.5t42.5 -37t14.5 -38q0 -14 -7 -25t-16 -18.5t-16.5 -11t-8.5 -2.5q-26 37 -71 62t-102 25q-61 0 -97.5 -27t-36.5 -72q0 -27 11.5 -43.5t31.5 -27t48 -17.5t62 -15q41 -9 80 -23t69 -36t48.5 -54.5t18.5 -79.5q0 -90 -64.5 -141.5t-178.5 -51.5z
" />
    <glyph glyph-name="T" unicode="T" horiz-adv-x="593" 
d="M68 555q-48 0 -48 44v5q0 43 48 43h458q47 0 47 -43v-5q0 -44 -47 -44h-177v-512q0 -47 -46 -47h-14q-44 0 -44 47v512h-177z" />
    <glyph glyph-name="U" unicode="U" horiz-adv-x="650" 
d="M324 -12q-130 0 -196.5 69.5t-66.5 205.5v341q0 47 44 47h14q45 0 45 -47v-338q0 -187 161 -187t161 188v337q0 47 44 47h16q43 0 43 -47v-339q0 -136 -67.5 -206.5t-197.5 -70.5z" />
    <glyph glyph-name="V" unicode="V" horiz-adv-x="620" 
d="M488 604q9 26 24.5 36.5t32.5 10.5q12 0 23.5 -4t20 -9t13 -11t3.5 -9l-231 -585q-8 -20 -21.5 -29.5t-42.5 -9.5q-28 0 -41 9t-22 30l-232 585q-1 3 3.5 9t13 11t20.5 9t24 4q20 0 36 -11t24 -36l176 -493z" />
    <glyph glyph-name="W" unicode="W" horiz-adv-x="925" 
d="M269 -7q-33 0 -49 9t-21 32l-151 588q-1 4 15 16.5t46 12.5q20 0 36 -13.5t24 -46.5l105 -476l123 407q6 23 22 35t46 12t45 -12t23 -35l121 -405l107 475q7 32 21 45.5t36 13.5q14 0 25.5 -4t19 -9t11 -9.5t2.5 -6.5l-149 -588q-5 -23 -21 -32t-49 -9q-30 0 -45 9.5
t-22 32.5l-125 418l-131 -418q-6 -23 -20.5 -32.5t-44.5 -9.5z" />
    <glyph glyph-name="X" unicode="X" horiz-adv-x="606" 
d="M305 387l164 231q12 19 25.5 27t27.5 8q13 0 24.5 -5.5t19.5 -13t12 -14.5t2 -10l-211 -286l211 -284q2 -3 -2 -10t-12 -14.5t-20 -13t-26 -5.5q-15 0 -30.5 8t-26.5 26l-163 234l-166 -235q-13 -20 -26 -27.5t-27 -7.5q-13 0 -24.5 5.5t-19.5 13t-12 14.5t-2 10l213 287
l-207 283q-2 3 2 10t12.5 14.5t20.5 13t26 5.5q16 0 31 -8t26 -26z" />
    <glyph glyph-name="Y" unicode="Y" horiz-adv-x="573" 
d="M338 43q0 -47 -45 -47h-14q-44 0 -44 47v223l-229 343q-1 3 2 9.5t11 14t21 13t31 5.5q31 0 50 -36l166 -264l166 264q12 20 25 28t26 8q17 0 29.5 -5.5t20 -13t11 -14.5t1.5 -9l-228 -343v-223z" />
    <glyph glyph-name="Z" unicode="Z" horiz-adv-x="609" 
d="M115 0q-36 0 -51.5 14.5t-15.5 34.5v9q0 11 2 20t7 18.5t13.5 21t20.5 26.5l339 413h-333q-46 0 -46 42v6q0 42 46 42h391q36 0 51 -14t15 -34v-9q0 -23 -11 -41.5t-31 -41.5l-342 -417h353q46 0 46 -42v-6q0 -42 -46 -42h-408v0z" />
    <glyph glyph-name="bracketleft" unicode="[" horiz-adv-x="345" 
d="M125 -198q-25 0 -40 16t-15 42v732q0 26 15 42t40 16h154q26 0 36.5 -9t10.5 -29v-7q0 -20 -10.5 -29.5t-36.5 -9.5h-116v-680h116q26 0 37 -9t11 -29v-6q0 -20 -11 -30t-37 -10h-154v0z" />
    <glyph glyph-name="backslash" unicode="\" horiz-adv-x="339" 
d="M279 -202q-8 0 -14 1t-6 3l-238 766q-8 27 -8 40q0 15 5.5 24.5t14 14t18.5 6t18 1.5t14 -1.5t6 -2.5l237 -766q8 -26 8 -40q0 -15 -5.5 -24t-14 -14t-18 -6.5t-17.5 -1.5z" />
    <glyph glyph-name="bracketright" unicode="]" horiz-adv-x="345" 
d="M66 -198q-26 0 -37 10t-11 30v6q0 20 11 29t37 9h116v680h-115q-26 0 -37 9.5t-11 29.5v7q0 20 11 29t37 9h153q25 0 40 -16t15 -42v-732q0 -26 -15 -42t-40 -16h-154v0z" />
    <glyph glyph-name="asciicircum" unicode="^" 
d="M249 551q-38 -57 -62 -82t-45 -25q-14 0 -23 9t-9 23t9 30t23 32t30.5 31.5t32 27.5t28 19.5t17.5 8.5q8 -1 30.5 -17t46.5 -38.5t43 -48t19 -45.5q0 -14 -8.5 -23t-22.5 -9q-21 0 -46 25t-63 82z" />
    <glyph glyph-name="underscore" unicode="_" horiz-adv-x="479" 
d="M56 -82q-43 0 -43 38v5q0 18 11 28.5t32 10.5h367q21 0 32 -10.5t11 -28.5v-5q0 -38 -43 -38h-367v0z" />
    <glyph glyph-name="grave" unicode="`" 
d="M153 609q-43 26 -43 61q0 17 13.5 28t31.5 11q25 0 48 -17q24 -16 47 -38.5t40 -43.5t26.5 -36.5t7.5 -18.5t-19 -2t-41.5 8t-54 18.5t-56.5 29.5z" />
    <glyph glyph-name="a" unicode="a" horiz-adv-x="523" 
d="M221 60q32 0 59.5 9.5t47 27t30.5 41.5t11 52v37l-27 -1q-106 -4 -159 -25.5t-53 -70.5q0 -32 24 -51t67 -19zM369 299q0 55 -30.5 84t-88.5 29q-55 0 -88 -24.5t-50 -57.5l-9.5 0.5t-21 5t-21 14.5t-9.5 28q0 17 13 37.5t39 37.5t64.5 28.5t89.5 11.5q103 0 156.5 -50
t53.5 -142v-295q0 -4 -11 -7.5t-25 -3.5q-26 0 -43 16.5t-18 61.5q-27 -39 -72 -61.5t-101 -22.5q-78 0 -121 37.5t-43 99.5q0 84 79.5 122t243.5 41h13v10z" />
    <glyph glyph-name="b" unicode="b" horiz-adv-x="585" 
d="M159 210q0 -30 12 -56t32 -45t47 -29.5t57 -10.5q68 0 109 47t41 124q0 38 -11 69t-30.5 54t-47 35.5t-59.5 12.5q-55 0 -93 -27t-57 -73v-101zM159 43q0 -27 -12 -37t-31 -10h-11q-20 0 -32 10t-12 37v633q0 2 10.5 6.5t25.5 4.5q11 0 22.5 -3.5t20.5 -13t14.5 -26
t5.5 -42.5v-195q29 41 70.5 63.5t97.5 22.5q48 0 89.5 -18t71.5 -51t47 -79.5t17 -103.5t-17 -103.5t-47 -80t-72 -52t-92 -18.5q-60 0 -103 25t-63 60v-29z" />
    <glyph glyph-name="c" unicode="c" horiz-adv-x="516" 
d="M282 -13q-54 0 -100 19t-79.5 52.5t-52 80.5t-18.5 102t19 101t52 79.5t79 52.5t100 19t92.5 -14.5t64 -35t37.5 -43.5t12 -40q0 -15 -9 -24.5t-19.5 -14.5t-20 -6t-10.5 1q-17 40 -50 67t-95 27q-34 0 -63 -12.5t-50 -35t-33 -53.5t-12 -68t12 -68.5t33 -54t50 -35.5
t63 -13q61 0 94.5 27t50.5 67q1 2 10.5 1t20 -5.5t19.5 -14.5t9 -26t-12 -39t-37.5 -43.5t-64.5 -35t-92 -14.5z" />
    <glyph glyph-name="d" unicode="d" horiz-adv-x="585" 
d="M426 312q-19 46 -55.5 72.5t-92.5 26.5q-68 0 -109 -46.5t-41 -124.5q0 -37 11 -68.5t30.5 -54.5t47 -35.5t59.5 -12.5q30 0 57 10.5t48 29.5t33 44.5t12 56.5v102zM425 676q0 2 11 6.5t25 4.5q12 0 23 -3.5t20 -13t14.5 -26t5.5 -42.5v-559q0 -27 -12 -37t-32 -10h-10
q-20 0 -32 10t-12 37v37q-28 -44 -70 -68.5t-99 -24.5q-48 0 -89.5 18t-71.5 51.5t-47 80t-17 103.5t17 103.5t47 80t72 51.5t92 18q59 0 101.5 -23.5t63.5 -55.5v262z" />
    <glyph glyph-name="e" unicode="e" horiz-adv-x="540" 
d="M413 281q-4 63 -40 100t-96 37q-30 0 -55.5 -10t-45.5 -28.5t-33 -43.5t-18 -55h288zM125 214q3 -33 16 -60.5t34 -47t50 -30.5t63 -11q32 0 56 6.5t42 17.5t31 25.5t22 30.5q1 1 9 -1t17.5 -7t17.5 -15t8 -26t-13.5 -35t-40 -35.5t-64.5 -27.5t-87 -11q-57 0 -104 18
t-80 51t-51.5 79.5t-18.5 102.5q0 55 18.5 101.5t51.5 80.5t78 53.5t98 19.5q52 0 94.5 -17.5t73 -49.5t47 -76.5t16.5 -98.5v-8q0 -16 -6.5 -22.5t-23.5 -6.5h-354v0z" />
    <glyph glyph-name="f" unicode="f" horiz-adv-x="353" 
d="M52 400q-24 0 -34 9.5t-10 28.5v7q0 18 10 27t34 9h56v36q0 91 40.5 134t112.5 43q56 0 82 -19.5t26 -45.5q0 -10 -3.5 -18.5t-8 -14t-8 -8.5t-4.5 -2q-11 11 -30 19.5t-42 8.5q-36 0 -52.5 -23.5t-16.5 -74.5v-35h81q24 0 34 -9.5t10 -27.5v-7q0 -18 -10 -27.5t-34 -9.5
h-79v-357q0 -27 -11.5 -37t-31.5 -10h-10q-20 0 -32.5 10t-12.5 37v357h-56z" />
    <glyph glyph-name="g" unicode="g" horiz-adv-x="489" 
d="M243 10q-30 -2 -57.5 -8.5t-48 -17t-32.5 -25.5t-12 -34q0 -67 144 -67q73 0 113.5 19.5t40.5 55.5q0 18 -13 30t-34 20t-47.5 14t-53.5 13zM240 204q50 0 81 30t31 79q0 48 -31.5 78.5t-82.5 30.5q-49 0 -80 -30t-31 -79t31.5 -79t81.5 -30zM380 510q12 20 25 29t32 9
q14 0 24 -6.5t16.5 -14t9 -14t1.5 -7.5l-81 -84q20 -23 30.5 -50t10.5 -58q0 -38 -15.5 -70t-43 -55.5t-65.5 -36.5t-84 -13h-9t-9 1q-5 -7 -5 -18q0 -12 8.5 -19t25 -12.5t41 -10.5t55.5 -13q26 -7 51 -17t44.5 -25.5t32 -37t12.5 -51.5q0 -69 -66 -108t-186 -39
q-122 0 -179.5 32.5t-57.5 100.5q0 26 11.5 48t32.5 38.5t49 28t61 17.5q-9 8 -14.5 19t-5.5 26t7.5 28.5t19.5 23.5q-58 19 -92 61t-34 99q0 38 15.5 71t43 58t65 39t82.5 14q32 0 61 -7.5t54 -21.5z" />
    <glyph glyph-name="h" unicode="h" horiz-adv-x="561" 
d="M160 405q24 38 63 63t96 25q48 0 83 -15.5t58 -43.5t34 -66t11 -83v-242q0 -27 -12.5 -37t-31.5 -10h-11q-20 0 -32 10t-12 37v231q0 63 -29.5 97.5t-81.5 34.5q-62 0 -98.5 -37.5t-36.5 -103.5v-222q0 -27 -12.5 -37t-31.5 -10h-11q-20 0 -32 10t-12 37v633
q0 2 10.5 6.5t25.5 4.5q11 0 22.5 -3.5t20.5 -13t14.5 -26t5.5 -42.5v-197v0z" />
    <glyph glyph-name="i" unicode="i" horiz-adv-x="230" 
d="M115 584q-28 0 -43.5 14.5t-15.5 40.5q0 27 15.5 41.5t44.5 14.5q58 0 58 -56q0 -55 -59 -55zM110 -4q-20 0 -32.5 10t-12.5 37v395q0 27 12.5 37.5t32.5 10.5h10q20 0 32 -10t12 -38v-395q0 -27 -12 -37t-32 -10h-10v0z" />
    <glyph glyph-name="j" unicode="j" horiz-adv-x="230" 
d="M115 584q-28 0 -43.5 14.5t-15.5 40.5q0 27 15.5 41.5t44.5 14.5q58 0 58 -56q0 -55 -59 -55zM20 -200q-48 0 -75 18.5t-27 45.5q0 10 3.5 19t7.5 15t7.5 9.5t4.5 2.5q11 -11 27 -19.5t37 -8.5q32 0 46 18t14 59v479q0 27 12.5 37.5t32.5 10.5h10q20 0 32 -10t12 -38
v-485q0 -74 -36.5 -113.5t-107.5 -39.5z" />
    <glyph glyph-name="k" unicode="k" horiz-adv-x="474" 
d="M160 43q0 -27 -12.5 -37t-31.5 -10h-11q-20 0 -32 10t-12 37v633q0 2 10.5 6.5t25.5 4.5q11 0 22.5 -3.5t20.5 -13t14.5 -26t5.5 -42.5v-336l167 186q15 19 30 26.5t29 7.5q13 0 23 -5.5t17 -12t10 -13t1 -8.5l-175 -193l202 -219q1 -2 -2.5 -8.5t-10.5 -13.5
t-17.5 -12.5t-23.5 -5.5q-14 0 -28.5 7t-30.5 27l-191 206v-192z" />
    <glyph glyph-name="l" unicode="l" horiz-adv-x="230" 
d="M110 -4q-20 0 -32.5 10t-12.5 37v633q0 2 11 6.5t25 4.5q12 0 23 -3.5t20 -13t14.5 -26t5.5 -42.5v-559q0 -27 -12 -37t-32 -10h-10v0z" />
    <glyph glyph-name="m" unicode="m" horiz-adv-x="869" 
d="M159 411q25 36 62 59t87 23q59 0 98.5 -26.5t58.5 -74.5q25 42 66 71.5t101 29.5q92 0 136.5 -52t44.5 -146v-252q0 -27 -12 -37t-32 -10h-10q-20 0 -32.5 10t-12.5 37v240q0 123 -106 123q-38 0 -70.5 -22t-51.5 -58v-283q0 -27 -12 -37t-32 -10h-10q-20 0 -32.5 10
t-12.5 37v236q0 127 -106 127q-38 0 -70.5 -22t-50.5 -58v-283q0 -27 -12.5 -37t-31.5 -10h-11q-20 0 -32 10t-12 37v432q0 2 10.5 6.5t25.5 4.5q11 0 21 -3t19 -11.5t15 -23t7 -37.5z" />
    <glyph glyph-name="n" unicode="n" horiz-adv-x="561" 
d="M159 408q25 38 65 61.5t95 23.5q48 0 83 -15.5t58 -43t34 -65t11 -82.5v-244q0 -27 -12.5 -37t-31.5 -10h-11q-20 0 -32 10t-12 37v232q0 61 -29 96t-82 35q-48 0 -82.5 -23t-52.5 -61v-279q0 -27 -12.5 -37t-31.5 -10h-11q-20 0 -32 10t-12 37v432q0 2 10.5 6.5
t25.5 4.5q22 0 41 -15.5t21 -62.5z" />
    <glyph glyph-name="o" unicode="o" horiz-adv-x="568" 
d="M284 -13q-56 0 -102.5 18.5t-79.5 52.5t-51.5 80.5t-18.5 102.5q0 55 18.5 101.5t52 80t80 52t102.5 18.5q55 0 101 -19t79.5 -52.5t52 -80t18.5 -102.5q0 -55 -18.5 -101.5t-52 -80t-79.5 -52t-102 -18.5zM284 68q35 0 64 13t50.5 36t33.5 54t12 68q0 38 -12 69.5
t-33 54.5t-50.5 36t-64.5 13q-34 0 -63.5 -13t-51.5 -35.5t-34 -54t-12 -68.5t12 -68.5t34 -55t51.5 -36.5t63.5 -13z" />
    <glyph glyph-name="p" unicode="p" horiz-adv-x="585" 
d="M159 210q0 -30 12 -56t32 -45t47 -29.5t57 -10.5q68 0 109 47t41 124q0 38 -11 69t-30.5 54t-47 35.5t-59.5 12.5q-55 0 -93 -27t-57 -73v-101zM160 -149q0 -27 -12.5 -37t-31.5 -10h-11q-20 0 -32 10t-12 37v624q0 2 10.5 6.5t25.5 4.5q23 0 42 -16.5t20 -66.5
q29 42 70.5 66t98.5 24q48 0 89.5 -18t71.5 -51t47 -79.5t17 -103.5t-17 -103.5t-47 -80t-72 -52t-92 -18.5q-30 0 -55.5 7.5t-46.5 20t-37 28.5t-26 34v-226z" />
    <glyph glyph-name="q" unicode="q" horiz-adv-x="585" 
d="M426 311q-19 46 -55.5 73t-92.5 27q-68 0 -109 -46.5t-41 -124.5q0 -37 11 -68.5t30.5 -54.5t47 -35.5t59.5 -12.5q30 0 57 11t48 30t33 45t12 56v100zM426 412q3 45 22 59.5t40 14.5q15 0 25.5 -4.5t10.5 -6.5v-624q0 -27 -12 -37t-32 -10h-11q-19 0 -31.5 10t-12.5 37
v227q-28 -43 -69.5 -67t-98.5 -24q-48 0 -89.5 18t-71.5 51.5t-47 80t-17 103.5t17 103.5t47 80t72 51.5t92 18q60 0 103 -24t63 -57z" />
    <glyph glyph-name="r" unicode="r" horiz-adv-x="372" 
d="M159 402q32 91 122 91q38 0 58.5 -17t20.5 -47q0 -14 -4.5 -24t-10 -16.5t-10 -9t-5.5 -1.5q-11 9 -26 15t-35 6q-29 0 -50 -13.5t-34 -38.5t-19 -59t-6 -76v-169q0 -27 -12.5 -37t-31.5 -10h-11q-20 0 -32 10t-12 37v432q0 2 10.5 6.5t25.5 4.5q11 0 22 -3.5t20 -13
t14.5 -25.5t5.5 -42z" />
    <glyph glyph-name="s" unicode="s" horiz-adv-x="464" 
d="M229 -12q-50 0 -88 9.5t-63.5 24.5t-38.5 33t-13 35q0 12 5.5 20.5t12.5 14.5t13.5 8.5t7.5 1.5q24 -31 64.5 -51.5t97.5 -20.5q51 0 78.5 17.5t27.5 47.5q0 18 -8.5 30t-24 19.5t-38.5 13.5t-53 12q-27 6 -56.5 14t-54.5 23t-41.5 39.5t-16.5 62.5q0 68 52 109.5
t140 41.5q46 0 80.5 -9t58 -23t35 -31t11.5 -34q0 -12 -6 -21t-13.5 -15t-13.5 -8.5t-7 -1.5q-23 30 -59 49t-82 19q-51 0 -77.5 -18t-26.5 -48q0 -16 8 -27t23 -18.5t37.5 -13.5t51.5 -12q28 -6 59 -14.5t57.5 -23.5t43.5 -40t17 -64q0 -69 -53 -110t-147 -41z" />
    <glyph glyph-name="t" unicode="t" horiz-adv-x="371" 
d="M62 400q-23 0 -33 9.5t-10 27.5v7q0 18 10 27.5t33 9.5h35v74q0 26 12 36.5t32 10.5h10q20 0 31.5 -9.5t11.5 -37.5v-74h109q23 0 32.5 -9t9.5 -27v-7q0 -19 -10 -28.5t-33 -9.5h-109v-243q0 -45 14.5 -67t49.5 -22q23 0 40 9.5t28 24.5q1 1 5.5 -1t9.5 -7t9 -13.5
t4 -20.5q0 -28 -29 -50.5t-83 -22.5q-75 0 -109.5 40.5t-34.5 118.5v254h-35z" />
    <glyph glyph-name="u" unicode="u" horiz-adv-x="561" 
d="M402 72q-25 -37 -64.5 -60.5t-95.5 -23.5q-48 0 -82.5 15.5t-57.5 42.5t-34 65t-11 83v244q0 27 12 37.5t31 10.5h11q20 0 32 -10t12 -38v-232q0 -63 30 -97.5t85 -34.5q45 0 79 23.5t53 61.5v279q0 27 12 37.5t31 10.5h11q20 0 32 -10t12 -38v-431q0 -2 -10.5 -6.5
t-24.5 -4.5q-11 0 -22 3.5t-19.5 12t-14.5 23t-7 37.5z" />
    <glyph glyph-name="v" unicode="v" horiz-adv-x="499" 
d="M250 89l124 338q13 35 27.5 47t33.5 12q12 0 21.5 -4t16.5 -9t10.5 -9.5t2.5 -6.5l-175 -432q-13 -31 -61 -31q-26 0 -39.5 6t-20.5 23l-177 434q-2 5 13 17t39 12q21 0 35.5 -12t27.5 -47z" />
    <glyph glyph-name="w" unicode="w" horiz-adv-x="710" 
d="M201 -6q-27 0 -41.5 7t-19.5 25l-120 431q-1 2 4 7t13.5 10t19.5 8.5t22 3.5q16 0 31 -11t21 -42l75 -337l92 291q5 18 19 26.5t42 8.5q27 0 41 -8.5t19 -26.5l89 -289l74 335q5 31 20.5 42t30.5 11q11 0 21.5 -4t18.5 -9t12.5 -9.5t4.5 -6.5l-119 -431q-5 -18 -19 -25
t-41 -7q-31 0 -42.5 7.5t-18.5 27.5l-93 291l-96 -291q-7 -20 -19 -27.5t-41 -7.5z" />
    <glyph glyph-name="x" unicode="x" horiz-adv-x="489" 
d="M242 188l-104 -151q-26 -42 -62 -42q-13 0 -23.5 5t-18 12t-10.5 13t-2 7l159 208l-157 210q-1 2 2 8t10 12t17.5 11t23.5 5q20 0 34.5 -10.5t27.5 -30.5l107 -153l105 153q14 23 30 32t31 9q14 0 24.5 -5t17.5 -11.5t10.5 -12t2.5 -7.5l-159 -210l156 -208q1 -2 -2 -8
t-10 -12.5t-17.5 -11.5t-24.5 -5q-20 0 -34.5 10.5t-26.5 30.5q-29 43 -53 76l-20 28l-17.5 24.5t-12 17z" />
    <glyph glyph-name="y" unicode="y" horiz-adv-x="498" 
d="M199 -195q-10 0 -20 3.5t-17.5 8t-11.5 9t-3 6.5l80 195q-17 2 -26.5 7.5t-15.5 20.5l-172 402q-2 5 13 17t39 12q21 0 36 -12t27 -44l130 -332l115 330q11 33 26.5 45.5t35.5 12.5q10 0 19.5 -3.5t17 -8t12 -9t3.5 -6.5l-227 -599q-12 -32 -28 -43.5t-33 -11.5z" />
    <glyph glyph-name="z" unicode="z" horiz-adv-x="482" 
d="M76 0q-23 0 -32 11.5t-9 26.5v8q0 16 6.5 26.5t21.5 27.5l252 302h-235q-43 0 -43 36v7q0 36 43 36h321q23 0 32 -11t9 -26v-6q0 -14 -6 -24.5t-21 -27.5l-257 -306h249q43 0 43 -37v-6q0 -37 -43 -37h-331v0z" />
    <glyph glyph-name="braceleft" unicode="{" horiz-adv-x="433" 
d="M369 -199q-36 0 -75 18.5t-72.5 57t-56.5 98.5t-28 142l-55 30q-17 9 -28.5 16t-18 15.5t-9 20t-2.5 28.5t3 28.5t9.5 20t18 15.5t27.5 16l55 30q5 83 28.5 142.5t57 98t72.5 57t75 18.5q21 0 33.5 -11.5t12.5 -31.5q0 -13 -6.5 -23t-8.5 -11q-47 -9 -78.5 -31
t-51.5 -57.5t-29 -84.5t-11 -112l-119 -64l118 -64q2 -63 11.5 -112t29 -84.5t51 -57.5t78.5 -31q3 -1 9.5 -11t6.5 -23q0 -20 -13 -31.5t-34 -11.5z" />
    <glyph glyph-name="bar" unicode="|" horiz-adv-x="256" 
d="M123 -198q-20 0 -32.5 10t-12.5 38v756q0 27 12.5 37t32.5 10h10q20 0 32 -10t12 -37v-756q0 -27 -12 -37.5t-32 -10.5h-10v0z" />
    <glyph glyph-name="braceright" unicode="}" horiz-adv-x="433" 
d="M63 -199q-21 0 -33.5 11.5t-12.5 31.5q0 13 6.5 23t8.5 11q47 9 78.5 31t51.5 57.5t29 84.5t11 112l118 64l-118 64q-2 63 -11.5 112t-29 84.5t-51 57.5t-78.5 31q-3 1 -9.5 11t-6.5 23q0 20 12.5 31.5t33.5 11.5q36 0 75.5 -18.5t72.5 -57t56.5 -98t28.5 -142.5l56 -30
q16 -9 27 -16t18 -15.5t10 -20t3 -28.5t-2.5 -28.5t-9.5 -20t-18 -15.5t-28 -16l-55 -30q-5 -82 -28.5 -142t-56.5 -98.5t-72.5 -57t-75.5 -18.5z" />
    <glyph glyph-name="asciitilde" unicode="~" horiz-adv-x="499" 
d="M131 165q-17 0 -26 9.5t-9 25.5q0 19 6 36.5t16.5 30.5t25 21t30.5 8q27 0 65.5 -19.5t78.5 -55.5q8 26 21 47.5t30 21.5t26 -9.5t9 -26.5q0 -19 -6 -36t-16.5 -30t-25 -21t-30.5 -8q-28 0 -66.5 19t-77.5 56q-9 -26 -21.5 -47.5t-29.5 -21.5z" />
    <glyph glyph-name="nonbreakingspace" unicode="&#xa0;" horiz-adv-x="170" 
 />
    <glyph glyph-name="exclamdown" unicode="&#xa1;" horiz-adv-x="260" 
d="M124 534q-55 0 -55 54v12q0 54 55 54h13q54 0 54 -54v-12q0 -54 -54 -54h-13v0zM118 -6q-26 0 -39.5 15t-8.5 46l30 371q3 16 8 24.5t17 8.5h11q12 0 16.5 -8.5t7.5 -24.5l30 -371q5 -31 -8.5 -46t-38.5 -15h-25v0z" />
    <glyph glyph-name="cent" unicode="&#xa2;" horiz-adv-x="535" 
d="M249 29q-98 14 -154.5 80t-56.5 173q0 50 15.5 93t43 76t66.5 55t85 30v76q0 26 10.5 37t30.5 11h5q20 0 30 -11t10 -37v-74q42 -4 74 -16.5t53 -29t31.5 -35t10.5 -34.5q0 -15 -8 -25.5t-17.5 -16.5t-18 -8t-9.5 0q-20 37 -48 57.5t-72 25.5v-348q88 10 126 92q1 2 10 0
t19 -7t18 -15t8 -25q0 -18 -11.5 -38.5t-33.5 -39t-55 -32t-76 -17.5v-78q0 -26 -10.5 -36.5t-30.5 -10.5h-5q-20 0 -30 10.5t-10 36.5v81v0zM253 453q-54 -13 -86.5 -57t-32.5 -114q0 -68 32.5 -111t86.5 -57v339v0z" />
    <glyph glyph-name="sterling" unicode="&#xa3;" horiz-adv-x="579" 
d="M198 86h298q46 0 46 -40v-6q0 -40 -46 -40h-434q-46 0 -46 40v7q0 39 46 39h42l31 171h-62q-40 0 -40 35v9q0 17 11 26.5t29 9.5h77l24 133q17 91 67 140.5t136 49.5q44 0 77 -12t54.5 -31t32.5 -42t11 -46q0 -21 -9.5 -32t-21 -15.5t-21.5 -4.5t-10 1q-10 46 -36.5 72
t-73.5 26q-52 0 -77.5 -28t-36.5 -88l-22 -123h150q40 0 40 -36v-9q0 -35 -40 -35h-165z" />
    <glyph glyph-name="currency" unicode="&#xa4;" horiz-adv-x="628" 
d="M70 366q-22 0 -31 8.5t-9 23.5v8q0 14 9 22.5t31 8.5h58q21 103 89.5 162.5t168.5 59.5q49 0 87.5 -12t65 -30.5t40.5 -41t14 -42.5q0 -15 -8 -25.5t-17.5 -16.5t-18 -8t-9.5 -1q-26 45 -62.5 68.5t-93.5 23.5q-58 0 -99 -36.5t-58 -100.5h191q22 0 30.5 -8.5t8.5 -22.5
v-8q0 -15 -8.5 -23.5t-30.5 -8.5h-201v-12v-60v-9h201q22 0 30.5 -9t8.5 -23v-8q0 -14 -8.5 -23t-30.5 -9h-191q17 -65 59 -102.5t103 -37.5q58 0 93.5 26t59.5 74q1 2 9.5 0t18.5 -8.5t18 -17.5t8 -26q0 -19 -13.5 -42.5t-40 -44t-64.5 -34t-88 -13.5q-106 0 -174 59.5
t-88 166.5h-58q-22 0 -31 9t-9 23v8q0 14 9 23t31 9h50v13v52v16h-50z" />
    <glyph glyph-name="yen" unicode="&#xa5;" horiz-adv-x="589" 
d="M96 255q-23 0 -32 9t-9 24v8q0 15 9 24t32 9h122l-176 279q-1 3 2 10t11 14.5t20.5 13.5t29.5 6q32 0 50 -36l140 -255l143 254q11 20 24 28.5t27 8.5q15 0 26.5 -6t18.5 -13.5t10.5 -15t1.5 -9.5l-175 -279h121q23 0 32 -9t9 -24v-8q0 -15 -9 -24t-32 -9h-151v-68h151
q23 0 32 -9t9 -24v-8q0 -15 -9 -24t-32 -9h-151v-71q0 -23 -9.5 -35t-32.5 -12h-11q-40 0 -40 47v71h-152q-23 0 -32 9t-9 24v8q0 15 9 24t32 9h152v68h-152z" />
    <glyph glyph-name="section" unicode="&#xa7;" horiz-adv-x="542" 
d="M142 367q-38 17 -62 46t-24 80q0 37 16.5 67.5t46 52.5t69.5 34t87 12q56 0 95.5 -11.5t64 -29t36 -37t11.5 -34.5q0 -13 -6.5 -23t-14 -16.5t-14.5 -9.5t-8 -2q-29 39 -68 61.5t-93 22.5q-51 0 -87 -19.5t-36 -57.5q0 -39 40 -58t111 -35q35 -9 71 -19.5t65 -28
t47.5 -44t18.5 -67.5q0 -48 -28 -80.5t-77 -49.5q38 -16 62.5 -45t24.5 -82q0 -37 -16 -67t-46 -51.5t-72.5 -33.5t-94.5 -12q-60 0 -103.5 12t-71 30.5t-41 40t-13.5 40.5q0 12 6.5 21.5t14 16.5t14 10t7.5 2q27 -43 74.5 -68t112.5 -25q63 0 97 20t34 56q0 22 -10.5 35.5
t-30 23t-47 16.5t-62.5 15q-36 8 -72.5 18.5t-66.5 28.5t-49 45t-19 69q0 48 28 80.5t79 49.5zM315 147q46 6 74.5 32.5t28.5 57.5q0 24 -13 39.5t-35.5 26t-52 18t-63.5 14.5q-6 2 -11.5 2.5t-11.5 2.5q-24 -3 -43.5 -12t-34 -21t-22 -26.5t-7.5 -29.5q0 -24 13.5 -40
t36.5 -26.5t53 -18t64 -14.5q6 -2 12 -3z" />
    <glyph glyph-name="dieresis" unicode="&#xa8;" 
d="M343 546q-29 0 -45 15.5t-16 43.5q0 29 16 44.5t43 15.5t43.5 -15.5t16.5 -44.5q0 -28 -16 -43.5t-42 -15.5zM159 546q-27 0 -43.5 15.5t-16.5 43.5q0 29 16 44.5t42 15.5q29 0 45 -15.5t16 -44.5q0 -28 -16 -43.5t-43 -15.5z" />
    <glyph glyph-name="copyright" unicode="&#xa9;" horiz-adv-x="752" 
d="M376 -13q-73 0 -133.5 25t-104.5 69.5t-68.5 106t-24.5 134.5t25 135t69.5 107t105 70.5t132.5 25.5q73 0 133.5 -25t104 -69.5t68 -106t24.5 -134.5t-25 -135t-69 -107t-104.5 -70.5t-132.5 -25.5zM377 41q60 0 110 20.5t86 58t55.5 89t19.5 114.5q0 61 -20.5 113
t-57 89.5t-86.5 59t-109 21.5q-60 0 -110 -20.5t-86 -58t-55.5 -89t-19.5 -114.5q0 -61 20.5 -113t57 -89.5t86.5 -59t109 -21.5zM385 142q-39 0 -72 13t-57 37t-37.5 57t-13.5 73q0 39 14 72t38 57t56.5 37.5t70.5 13.5q42 0 71.5 -13.5t43.5 -27.5q19 -19 19 -40
q0 -10 -6 -18t-13.5 -13t-13.5 -6.5t-7 -0.5q-30 50 -93 50q-21 0 -39.5 -8.5t-33 -23t-22.5 -34.5t-8 -44t8.5 -44.5t22.5 -35.5t33.5 -23t41.5 -8q34 0 57 14.5t36 39.5q1 2 7.5 0t14 -7t13.5 -13t6 -19q0 -19 -23 -44q-14 -15 -43 -28t-71 -13z" />
    <glyph glyph-name="ordfeminine" unicode="&#xaa;" horiz-adv-x="435" 
d="M172 255q-66 0 -103.5 29t-37.5 79q0 29 11.5 52t41.5 40t81.5 27.5t131.5 14.5q0 45 -22.5 69t-71.5 24q-41 0 -66 -19.5t-39 -44.5q0 -1 -8.5 0t-18 4.5t-17.5 11.5t-8 22t9.5 31t30 31.5t51 24t72.5 9.5q90 0 131.5 -43t41.5 -120v-228q0 -3 -9.5 -6t-21.5 -3
q-20 0 -34.5 11.5t-16.5 46.5q-20 -29 -54.5 -46t-73.5 -17zM204 -7q-49 0 -49 49v10q0 49 49 49h11q50 0 50 -49v-10q0 -49 -50 -49h-11v0zM194 317q22 0 41 7t33 19t22 27.5t8 31.5v45q-57 -4 -93 -11t-56.5 -16.5t-27.5 -22.5t-7 -28q0 -24 21 -38t59 -14z" />
    <glyph glyph-name="guillemotleft" unicode="&#xab;" horiz-adv-x="519" 
d="M437 72q-24 0 -57 24.5t-62.5 55.5t-50.5 58.5t-21 33.5q0 4 9.5 18t25.5 33t36.5 40.5t41.5 39.5t41.5 29.5t36.5 11.5h2q17 0 26.5 -10.5t9.5 -24.5v-3q0 -12 -13 -28t-34 -33.5t-47 -36.5t-53 -37q27 -18 53.5 -36.5t47 -36t33.5 -33t13 -27.5v-4q0 -14 -9.5 -24
t-26.5 -10h-2v0zM214 89q-15 0 -33.5 10.5t-37.5 26.5t-37.5 35t-33 36.5t-23.5 30.5t-9 16q0 4 9 16.5t23.5 30t33 36.5t37.5 35t38 26.5t33 10.5h2q14 0 23 -9.5t9 -22.5v-2q0 -11 -11.5 -25.5t-30 -30.5t-42 -33t-47.5 -33q24 -16 47.5 -32.5t42 -32.5t30 -30.5
t11.5 -25.5v-1q0 -14 -9 -23t-23 -9h-2v0z" />
    <glyph glyph-name="logicalnot" unicode="&#xac;" horiz-adv-x="717" 
d="M385 248q-24 0 -36 9t-12 30v5q0 23 12 31.5t36 8.5h252q23 0 29.5 -10t6.5 -33v-11q0 -64 -22 -117.5t-61 -92t-93.5 -60t-119.5 -21.5q-75 0 -136.5 24.5t-105 69t-67.5 106t-24 135.5t24.5 136t68 107t105 70t134.5 25q59 0 104.5 -14t76.5 -34.5t47 -43.5t16 -42
q0 -15 -8 -26t-18 -18t-19 -9.5t-10 -1.5q-15 24 -35.5 42.5t-45.5 31.5t-52 19.5t-54 6.5q-50 0 -92 -18t-72 -51t-47 -79t-17 -102q0 -55 16.5 -100.5t46.5 -78.5t71.5 -51t90.5 -18q39 0 73 11.5t60 33.5t42 55t19 75h-184z" />
    <glyph glyph-name="registered" unicode="&#xae;" horiz-adv-x="752" 
d="M388 334q32 0 48.5 14t16.5 38q0 52 -68 52h-68v-104h71zM376 -13q-73 0 -133.5 25t-104.5 69.5t-68.5 106t-24.5 134.5t25 135t69.5 107t105 70.5t132.5 25.5q73 0 133.5 -25t104 -69.5t68 -106t24.5 -134.5t-25 -135t-69 -107t-104.5 -70.5t-132.5 -25.5zM377 41
q60 0 110 20.5t86 58t55.5 89t19.5 114.5q0 61 -20.5 113t-57 89.5t-86.5 59t-109 21.5q-60 0 -110 -20.5t-86 -58t-55.5 -89t-19.5 -114.5q0 -61 20.5 -113t57 -89.5t86.5 -59t109 -21.5zM524 177q1 -2 -2 -6.5t-8.5 -9.5t-14 -9t-17.5 -4q-11 0 -24 6t-24 22l-76 100h-40
v-92q0 -35 -32 -35h-11q-16 0 -24 11t-8 31v266q0 42 40 42h106q68 0 103.5 -27t35.5 -83q0 -42 -24 -69t-69 -35z" />
    <glyph glyph-name="macron" unicode="&#xaf;" 
d="M143 562q-50 0 -50 39v6q0 18 13.5 27.5t36.5 9.5h214q50 0 50 -37v-6q0 -39 -50 -39h-214v0z" />
    <glyph glyph-name="macron" unicode="&#x2c9;" 
d="M143 562q-50 0 -50 39v6q0 18 13.5 27.5t36.5 9.5h214q50 0 50 -37v-6q0 -39 -50 -39h-214v0z" />
    <glyph glyph-name="degree" unicode="&#xb0;" horiz-adv-x="399" 
d="M198 343q-34 0 -62.5 11.5t-49 32t-32 48.5t-11.5 62v9q0 34 12 62.5t33 49t50 32t63 11.5t62.5 -11.5t49 -32t32 -48.5t11.5 -62v-9q0 -34 -12 -62.5t-33 -49t-50 -32t-63 -11.5zM201 406q36 0 60.5 25t24.5 65v11q0 40 -25.5 65.5t-61.5 25.5q-37 0 -61.5 -25
t-24.5 -65v-11q0 -40 26 -65.5t62 -25.5z" />
    <glyph glyph-name="plusminus" unicode="&#xb1;" horiz-adv-x="410" 
d="M344 87q47 0 47 -42v-5q0 -40 -47 -40h-262q-47 0 -47 40v5q0 42 47 42h88v424q-14 -14 -32 -23t-40 -9q-35 0 -57.5 19t-22.5 50q0 13 4 22.5t9.5 16.5t10 10t5.5 2q11 -11 25 -17t34 -6q32 0 54.5 22t26.5 54h35q45 0 45 -47v-518h77z" />
    <glyph glyph-name="acute" unicode="&#xb4;" 
d="M176 555q-2 3 7.5 18.5t26.5 36.5t39.5 43.5t46.5 38.5q26 17 48 17q19 0 32 -11t13 -28q0 -35 -42 -61q-27 -18 -56 -29.5t-54 -18.5t-42 -8t-19 2z" />
    <glyph glyph-name="mu" unicode="&#xb5;" horiz-adv-x="585" 
d="M426 312q-19 46 -55.5 72.5t-92.5 26.5q-68 0 -109 -46.5t-41 -124.5q0 -37 11 -68.5t30.5 -54.5t47 -35.5t59.5 -12.5q30 0 57 10.5t48 29.5t33 44.5t12 56.5v102zM426 413q3 44 22 58.5t40 14.5q15 0 25.5 -4.5t10.5 -6.5v-433q0 -27 -12 -37t-32 -10h-11
q-19 0 -31.5 10t-12.5 37v36q-28 -43 -69.5 -67t-98.5 -24q-48 0 -89.5 18t-71.5 51.5t-47 80t-17 103.5t17 103.5t47 80t72 51.5t92 18q60 0 103 -23.5t63 -56.5z" />
    <glyph glyph-name="mu" unicode="&#x3bc;" horiz-adv-x="585" 
d="M426 312q-19 46 -55.5 72.5t-92.5 26.5q-68 0 -109 -46.5t-41 -124.5q0 -37 11 -68.5t30.5 -54.5t47 -35.5t59.5 -12.5q30 0 57 10.5t48 29.5t33 44.5t12 56.5v102zM426 413q3 44 22 58.5t40 14.5q15 0 25.5 -4.5t10.5 -6.5v-433q0 -27 -12 -37t-32 -10h-11
q-19 0 -31.5 10t-12.5 37v36q-28 -43 -69.5 -67t-98.5 -24q-48 0 -89.5 18t-71.5 51.5t-47 80t-17 103.5t17 103.5t47 80t72 51.5t92 18q60 0 103 -23.5t63 -56.5z" />
    <glyph glyph-name="paragraph" unicode="&#xb6;" horiz-adv-x="620" 
d="M506 -5q-33 0 -33 36v585q0 36 33 36h11q35 0 35 -36v-585q0 -36 -35 -36h-11v0zM372 -5q-17 0 -25.5 10t-8.5 26v254h-75q-115 0 -175 45t-60 135q0 91 58 138t173 47h113q20 0 32 -12t12 -32v-575q0 -36 -33 -36h-11v0z" />
    <glyph glyph-name="periodcentered" unicode="&#xb7;" horiz-adv-x="232" 
d="M109 183q-54 0 -54 54v12q0 55 54 55h13q55 0 55 -55v-12q0 -54 -55 -54h-13v0z" />
    <glyph glyph-name="periodcentered" unicode="&#x2219;" horiz-adv-x="232" 
d="M109 183q-54 0 -54 54v12q0 55 54 55h13q55 0 55 -55v-12q0 -54 -55 -54h-13v0z" />
    <glyph glyph-name="cedilla" unicode="&#xb8;" 
d="M203 -224q-6 -5 -16 -6t-19 1.5t-14 8.5t-1 15l53 118q8 19 17.5 29t35.5 10h9q20 0 33 -9t13 -26v-5q0 -10 -8.5 -20.5t-23.5 -25.5l-79 -90v0z" />
    <glyph glyph-name="ordmasculine" unicode="&#xba;" horiz-adv-x="478" 
d="M239 254q-44 0 -81 15.5t-63.5 42.5t-41.5 64t-15 80q0 42 15.5 79.5t42.5 65t64 43.5t80 16q44 0 80.5 -15.5t63 -43t41.5 -64.5t15 -80t-15.5 -80t-42.5 -64.5t-63.5 -43t-79.5 -15.5zM232 -7q-49 0 -49 49v10q0 49 49 49h11q50 0 50 -49v-10q0 -49 -50 -49h-11v0z
M240 326q26 0 48 10t38 27.5t25 41.5t9 52t-9 52t-25.5 41.5t-38 27.5t-47.5 10t-48.5 -10t-39 -27.5t-25.5 -41.5t-9 -52q0 -27 9.5 -51t26 -42t38.5 -28t48 -10z" />
    <glyph glyph-name="guillemotright" unicode="&#xbb;" horiz-adv-x="519" 
d="M303 89q-15 0 -23.5 9.5t-8.5 22.5v2q0 11 11.5 25.5t30 30.5t41.5 33t47 33q-24 16 -47 32.5t-41.5 32.5t-30 30.5t-11.5 25.5v1q0 14 8.5 23t23.5 9h1q15 0 33.5 -10.5t38 -26.5t38 -35t33 -36.5t23.5 -30t9 -16.5q0 -3 -9 -16t-23.5 -30.5t-33 -36.5t-38 -35
t-38 -26.5t-33.5 -10.5h-1v0zM80 72q-17 0 -26.5 10.5t-9.5 24.5v3q0 12 13 28t34 33.5t47 36.5t53 37q-27 18 -53.5 36.5t-47 36t-33.5 33t-13 27.5v4q0 14 9.5 24t26.5 10h1q16 0 36.5 -11.5t42 -29.5t41.5 -39t36 -40t25.5 -33.5t9.5 -18.5t-9.5 -18t-25.5 -33t-36 -40.5
t-41.5 -39.5t-42 -29.5t-36.5 -11.5h-1v0z" />
    <glyph glyph-name="questiondown" unicode="&#xbf;" horiz-adv-x="479" 
d="M255 534q-55 0 -55 54v12q0 54 55 54h14q54 0 54 -54v-12q0 -54 -54 -54h-14v0zM234 -12q-48 0 -86.5 12.5t-65.5 35.5t-41.5 54.5t-14.5 68.5q0 41 14.5 68t36 46t46.5 34.5t47 33.5t37 41.5t16 58.5q3 21 41 21q19 0 31 -8t11 -25q-1 -46 -15.5 -76.5t-34.5 -51
t-43 -34.5t-43 -28t-33 -30.5t-13 -42.5q0 -43 29.5 -68t83.5 -25q36 0 61 11t42 29t26.5 40.5t12.5 45.5q0 2 11 1.5t24 -6t24 -17t11 -31.5q0 -22 -12.5 -49.5t-39 -51.5t-67 -40.5t-96.5 -16.5z" />
    <glyph glyph-name="Agrave" unicode="&#xc0;" horiz-adv-x="630" 
d="M417 273l-104 274l-105 -274h209zM183 190l-57 -148q-10 -27 -25 -37t-32 -10q-23 0 -40.5 12t-15.5 19l230 594q6 16 21 24.5t50 8.5q36 0 50.5 -8.5t20.5 -24.5l232 -594q1 -3 -3.5 -8t-12.5 -10.5t-18.5 -9t-22.5 -3.5q-17 0 -33.5 10t-27.5 38l-57 147h-259zM194 775
q-43 26 -43 61q0 17 13.5 28t31.5 11q25 0 48 -17q24 -16 47 -38.5t40 -43.5t26.5 -36.5t7.5 -18.5t-19 -2t-41.5 8t-54 18.5t-56.5 29.5z" />
    <glyph glyph-name="Aacute" unicode="&#xc1;" horiz-adv-x="630" 
d="M417 273l-104 274l-105 -274h209zM183 190l-57 -148q-10 -27 -25 -37t-32 -10q-23 0 -40.5 12t-15.5 19l230 594q6 16 21 24.5t50 8.5q36 0 50.5 -8.5t20.5 -24.5l232 -594q1 -3 -3.5 -8t-12.5 -10.5t-18.5 -9t-22.5 -3.5q-17 0 -33.5 10t-27.5 38l-57 147h-259zM257 721
q-2 3 7.5 18.5t26.5 36.5t39.5 43.5t46.5 38.5q26 17 48 17q19 0 32 -11t13 -28q0 -35 -42 -61q-27 -18 -56 -29.5t-54 -18.5t-42 -8t-19 2z" />
    <glyph glyph-name="Acircumflex" unicode="&#xc2;" horiz-adv-x="630" 
d="M417 273l-104 274l-105 -274h209zM183 190l-57 -148q-10 -27 -25 -37t-32 -10q-23 0 -40.5 12t-15.5 19l230 594q6 16 21 24.5t50 8.5q36 0 50.5 -8.5t20.5 -24.5l232 -594q1 -3 -3.5 -8t-12.5 -10.5t-18.5 -9t-22.5 -3.5q-17 0 -33.5 10t-27.5 38l-57 147h-259zM314 820
q-38 -57 -62 -82t-45 -25q-14 0 -23 9t-9 23t9 30t23 32t30.5 31.5t32 27.5t28 19.5t17.5 8.5q8 -1 30.5 -17t46.5 -38.5t43 -48t19 -45.5q0 -14 -8.5 -23t-22.5 -9q-21 0 -46 25t-63 82z" />
    <glyph glyph-name="Atilde" unicode="&#xc3;" horiz-adv-x="630" 
d="M417 273l-104 274l-105 -274h209zM183 190l-57 -148q-10 -27 -25 -37t-32 -10q-23 0 -40.5 12t-15.5 19l230 594q6 16 21 24.5t50 8.5q36 0 50.5 -8.5t20.5 -24.5l232 -594q1 -3 -3.5 -8t-12.5 -10.5t-18.5 -9t-22.5 -3.5q-17 0 -33.5 10t-27.5 38l-57 147h-259zM201 718
q-17 0 -26 9.5t-9 25.5q0 19 6 36.5t16.5 30.5t25 21t30.5 8q27 0 65.5 -19.5t78.5 -55.5q8 26 21 47.5t30 21.5t26 -9.5t9 -26.5q0 -19 -6 -36t-16.5 -30t-25 -21t-30.5 -8q-28 0 -66.5 19t-77.5 56q-9 -26 -21.5 -47.5t-29.5 -21.5z" />
    <glyph glyph-name="Adieresis" unicode="&#xc4;" horiz-adv-x="630" 
d="M417 273l-104 274l-105 -274h209zM183 190l-57 -148q-10 -27 -25 -37t-32 -10q-23 0 -40.5 12t-15.5 19l230 594q6 16 21 24.5t50 8.5q36 0 50.5 -8.5t20.5 -24.5l232 -594q1 -3 -3.5 -8t-12.5 -10.5t-18.5 -9t-22.5 -3.5q-17 0 -33.5 10t-27.5 38l-57 147h-259zM408 712
q-29 0 -45 15.5t-16 43.5q0 29 16 44.5t43 15.5t43.5 -15.5t16.5 -44.5q0 -28 -16 -43.5t-42 -15.5zM224 712q-27 0 -43.5 15.5t-16.5 43.5q0 29 16 44.5t42 15.5q29 0 45 -15.5t16 -44.5q0 -28 -16 -43.5t-43 -15.5z" />
    <glyph glyph-name="Aring" unicode="&#xc5;" horiz-adv-x="630" 
d="M314 655q26 0 43.5 18.5t17.5 46.5q0 29 -17.5 48t-43.5 19t-44 -19t-18 -48q0 -27 18 -46t44 -19zM183 190l-57 -148q-10 -27 -25 -37t-32 -10q-23 0 -40.5 12t-15.5 19l230 594q0 2 3 3q-25 15 -38.5 40t-13.5 57q0 26 9 47.5t25 38t38.5 25.5t48.5 9q53 0 86.5 -34
t33.5 -86q0 -32 -14 -57t-40 -40q3 -1 3 -3l233 -594q1 -3 -3.5 -8t-12.5 -10.5t-18.5 -9t-22.5 -3.5q-17 0 -33.5 10t-27.5 38l-57 147h-259zM417 273l-104 276l-105 -276h209z" />
    <glyph glyph-name="AE" unicode="&#xc6;" horiz-adv-x="858" 
d="M417 273l-104 274l-105 -274h209zM183 190l-57 -148q-11 -27 -25.5 -37t-31.5 -10q-23 0 -40.5 12t-15.5 19l226 582q6 17 20.5 28t45.5 11h465q48 0 48 -43v-6q0 -43 -48 -43h-364l3.5 -7.5t8 -20.5t11 -29t12.5 -33q15 -40 35 -90h220q48 0 48 -41v-5q0 -42 -48 -42
h-184l76 -196h188q47 0 47 -41v-5q0 -45 -47 -45h-204q-33 0 -50 11t-28 41l-52 138h-259z" />
    <glyph glyph-name="Ccedilla" unicode="&#xc7;" horiz-adv-x="657" 
d="M370 -13q-72 0 -132 24.5t-103 69t-67 106t-24 135.5t24 136t67.5 107t104 70t133.5 25q61 0 106.5 -15t76 -36.5t46 -45t15.5 -40.5q0 -18 -9 -29.5t-20 -18t-20.5 -8t-10.5 -0.5q-28 49 -78 74.5t-105 25.5q-49 0 -90 -17.5t-70.5 -50t-46 -77t-16.5 -98.5t17 -98.5
t47 -77t71 -50.5t90 -18q66 0 116.5 30t70.5 83q1 2 11 0.5t22 -8t21.5 -18t9.5 -29.5t-16 -44t-48 -49.5t-80 -40.5t-113 -17zM307 -224q-6 -5 -16 -6t-19 1.5t-14 8.5t-1 15l53 118q8 19 17.5 29t35.5 10h9q20 0 33 -9t13 -26v-5q0 -10 -8.5 -20.5t-23.5 -25.5l-79 -90v0z
" />
    <glyph glyph-name="Egrave" unicode="&#xc8;" horiz-adv-x="587" 
d="M124 0q-25 0 -40 15.5t-15 41.5v532q0 26 15 42t40 16h375q48 0 48 -43v-6q0 -43 -48 -43h-327v-181h253q48 0 48 -41v-3q0 -43 -48 -43h-253v-196h333q47 0 47 -41v-5q0 -45 -47 -45h-381v0zM216 775q-43 26 -43 61q0 17 13.5 28t31.5 11q25 0 48 -17q24 -16 47 -38.5
t40 -43.5t26.5 -36.5t7.5 -18.5t-19 -2t-41.5 8t-54 18.5t-56.5 29.5z" />
    <glyph glyph-name="Eacute" unicode="&#xc9;" horiz-adv-x="587" 
d="M124 0q-25 0 -40 15.5t-15 41.5v532q0 26 15 42t40 16h375q48 0 48 -43v-6q0 -43 -48 -43h-327v-181h253q48 0 48 -41v-3q0 -43 -48 -43h-253v-196h333q47 0 47 -41v-5q0 -45 -47 -45h-381v0zM226 721q-2 3 7.5 18.5t26.5 36.5t39.5 43.5t46.5 38.5q26 17 48 17
q19 0 32 -11t13 -28q0 -35 -42 -61q-27 -18 -56 -29.5t-54 -18.5t-42 -8t-19 2z" />
    <glyph glyph-name="Ecircumflex" unicode="&#xca;" horiz-adv-x="587" 
d="M124 0q-25 0 -40 15.5t-15 41.5v532q0 26 15 42t40 16h375q48 0 48 -43v-6q0 -43 -48 -43h-327v-181h253q48 0 48 -41v-3q0 -43 -48 -43h-253v-196h333q47 0 47 -41v-5q0 -45 -47 -45h-381v0zM308 820q-38 -57 -62 -82t-45 -25q-14 0 -23 9t-9 23t9 30t23 32t30.5 31.5
t32 27.5t28 19.5t17.5 8.5q8 -1 30.5 -17t46.5 -38.5t43 -48t19 -45.5q0 -14 -8.5 -23t-22.5 -9q-21 0 -46 25t-63 82z" />
    <glyph glyph-name="Edieresis" unicode="&#xcb;" horiz-adv-x="587" 
d="M124 0q-25 0 -40 15.5t-15 41.5v532q0 26 15 42t40 16h375q48 0 48 -43v-6q0 -43 -48 -43h-327v-181h253q48 0 48 -41v-3q0 -43 -48 -43h-253v-196h333q47 0 47 -41v-5q0 -45 -47 -45h-381v0zM402 712q-29 0 -45 15.5t-16 43.5q0 29 16 44.5t43 15.5t43.5 -15.5
t16.5 -44.5q0 -28 -16 -43.5t-42 -15.5zM218 712q-27 0 -43.5 15.5t-16.5 43.5q0 29 16 44.5t42 15.5q29 0 45 -15.5t16 -44.5q0 -28 -16 -43.5t-43 -15.5z" />
    <glyph glyph-name="Igrave" unicode="&#xcc;" horiz-adv-x="259" 
d="M122 -4q-44 0 -44 47v561q0 47 44 47h14q45 0 45 -47v-561q0 -47 -45 -47h-14v0zM21 775q-43 26 -43 61q0 17 13.5 28t31.5 11q25 0 48 -17q24 -16 47 -38.5t40 -43.5t26.5 -36.5t7.5 -18.5t-19 -2t-41.5 8t-54 18.5t-56.5 29.5z" />
    <glyph glyph-name="Iacute" unicode="&#xcd;" horiz-adv-x="259" 
d="M122 -4q-44 0 -44 47v561q0 47 44 47h14q45 0 45 -47v-561q0 -47 -45 -47h-14v0zM68 721q-2 3 7.5 18.5t26.5 36.5t39.5 43.5t46.5 38.5q26 17 48 17q19 0 32 -11t13 -28q0 -35 -42 -61q-27 -18 -56 -29.5t-54 -18.5t-42 -8t-19 2z" />
    <glyph glyph-name="Icircumflex" unicode="&#xce;" horiz-adv-x="259" 
d="M122 -4q-44 0 -44 47v561q0 47 44 47h14q45 0 45 -47v-561q0 -47 -45 -47h-14v0zM129 820q-38 -57 -62 -82t-45 -25q-14 0 -23 9t-9 23t9 30t23 32t30.5 31.5t32 27.5t28 19.5t17.5 8.5q8 -1 30.5 -17t46.5 -38.5t43 -48t19 -45.5q0 -14 -8.5 -23t-22.5 -9q-21 0 -46 25
t-63 82z" />
    <glyph glyph-name="Idieresis" unicode="&#xcf;" horiz-adv-x="259" 
d="M122 -4q-44 0 -44 47v561q0 47 44 47h14q45 0 45 -47v-561q0 -47 -45 -47h-14v0zM223 712q-29 0 -45 15.5t-16 43.5q0 29 16 44.5t43 15.5t43.5 -15.5t16.5 -44.5q0 -28 -16 -43.5t-42 -15.5zM39 712q-27 0 -43.5 15.5t-16.5 43.5q0 29 16 44.5t42 15.5q29 0 45 -15.5
t16 -44.5q0 -28 -16 -43.5t-43 -15.5z" />
    <glyph glyph-name="Eth" unicode="&#xd0;" horiz-adv-x="721" 
d="M382 364q22 0 31 -10t9 -25v-9q0 -16 -9 -26t-31 -10h-175v-193h116q121 0 186 60.5t65 172.5q0 110 -65.5 171t-184.5 61h-117v-192h175zM52 284q-22 0 -30.5 10t-8.5 26v9q0 15 8.5 25t30.5 10h53v225q0 26 16 42t39 16h162q82 0 148 -22t112 -64t70.5 -101.5
t24.5 -134.5t-25 -135.5t-72 -102.5t-113.5 -64.5t-149.5 -22.5h-155q-24 0 -40.5 17t-16.5 40v227h-53z" />
    <glyph glyph-name="Ntilde" unicode="&#xd1;" horiz-adv-x="682" 
d="M111 -4q-42 0 -42 47v550q0 26 12.5 42t36.5 16h17q23 0 35.5 -9.5t26.5 -29.5l320 -454v446q0 47 43 47h12q42 0 42 -47v-550q0 -27 -12.5 -42.5t-35.5 -15.5h-8q-23 0 -33 7t-22 24l-337 477v-461q0 -47 -44 -47h-11v0zM223 718q-17 0 -26 9.5t-9 25.5q0 19 6 36.5
t16.5 30.5t25 21t30.5 8q27 0 65.5 -19.5t78.5 -55.5q8 26 21 47.5t30 21.5t26 -9.5t9 -26.5q0 -19 -6 -36t-16.5 -30t-25 -21t-30.5 -8q-28 0 -66.5 19t-77.5 56q-9 -26 -21.5 -47.5t-29.5 -21.5z" />
    <glyph glyph-name="Ograve" unicode="&#xd2;" horiz-adv-x="741" 
d="M370 -13q-72 0 -132.5 24.5t-103.5 69t-67 106t-24 135.5t24.5 136t68 107t103.5 70t132 25t132.5 -24.5t103.5 -69t67 -106.5t24 -136t-24 -136t-67.5 -106.5t-104 -69.5t-132.5 -25zM371 78q49 0 90 18t70.5 50t46 77t16.5 99t-16.5 99.5t-46.5 78t-71 51t-90 18.5
t-90 -18t-70.5 -50t-46 -77.5t-16.5 -99.5t16.5 -99t46.5 -78t71 -51t90 -18zM258 775q-43 26 -43 61q0 17 13.5 28t31.5 11q25 0 48 -17q24 -16 47 -38.5t40 -43.5t26.5 -36.5t7.5 -18.5t-19 -2t-41.5 8t-54 18.5t-56.5 29.5z" />
    <glyph glyph-name="Oacute" unicode="&#xd3;" horiz-adv-x="741" 
d="M370 -13q-72 0 -132.5 24.5t-103.5 69t-67 106t-24 135.5t24.5 136t68 107t103.5 70t132 25t132.5 -24.5t103.5 -69t67 -106.5t24 -136t-24 -136t-67.5 -106.5t-104 -69.5t-132.5 -25zM371 78q49 0 90 18t70.5 50t46 77t16.5 99t-16.5 99.5t-46.5 78t-71 51t-90 18.5
t-90 -18t-70.5 -50t-46 -77.5t-16.5 -99.5t16.5 -99t46.5 -78t71 -51t90 -18zM309 721q-2 3 7.5 18.5t26.5 36.5t39.5 43.5t46.5 38.5q26 17 48 17q19 0 32 -11t13 -28q0 -35 -42 -61q-27 -18 -56 -29.5t-54 -18.5t-42 -8t-19 2z" />
    <glyph glyph-name="Ocircumflex" unicode="&#xd4;" horiz-adv-x="741" 
d="M370 -13q-72 0 -132.5 24.5t-103.5 69t-67 106t-24 135.5t24.5 136t68 107t103.5 70t132 25t132.5 -24.5t103.5 -69t67 -106.5t24 -136t-24 -136t-67.5 -106.5t-104 -69.5t-132.5 -25zM371 78q49 0 90 18t70.5 50t46 77t16.5 99t-16.5 99.5t-46.5 78t-71 51t-90 18.5
t-90 -18t-70.5 -50t-46 -77.5t-16.5 -99.5t16.5 -99t46.5 -78t71 -51t90 -18zM370 820q-38 -57 -62 -82t-45 -25q-14 0 -23 9t-9 23t9 30t23 32t30.5 31.5t32 27.5t28 19.5t17.5 8.5q8 -1 30.5 -17t46.5 -38.5t43 -48t19 -45.5q0 -14 -8.5 -23t-22.5 -9q-21 0 -46 25t-63 82
z" />
    <glyph glyph-name="Otilde" unicode="&#xd5;" horiz-adv-x="741" 
d="M370 -13q-72 0 -132.5 24.5t-103.5 69t-67 106t-24 135.5t24.5 136t68 107t103.5 70t132 25t132.5 -24.5t103.5 -69t67 -106.5t24 -136t-24 -136t-67.5 -106.5t-104 -69.5t-132.5 -25zM371 78q49 0 90 18t70.5 50t46 77t16.5 99t-16.5 99.5t-46.5 78t-71 51t-90 18.5
t-90 -18t-70.5 -50t-46 -77.5t-16.5 -99.5t16.5 -99t46.5 -78t71 -51t90 -18zM253 718q-17 0 -26 9.5t-9 25.5q0 19 6 36.5t16.5 30.5t25 21t30.5 8q27 0 65.5 -19.5t78.5 -55.5q8 26 21 47.5t30 21.5t26 -9.5t9 -26.5q0 -19 -6 -36t-16.5 -30t-25 -21t-30.5 -8
q-28 0 -66.5 19t-77.5 56q-9 -26 -21.5 -47.5t-29.5 -21.5z" />
    <glyph glyph-name="Odieresis" unicode="&#xd6;" horiz-adv-x="741" 
d="M370 -13q-72 0 -132.5 24.5t-103.5 69t-67 106t-24 135.5t24.5 136t68 107t103.5 70t132 25t132.5 -24.5t103.5 -69t67 -106.5t24 -136t-24 -136t-67.5 -106.5t-104 -69.5t-132.5 -25zM371 78q49 0 90 18t70.5 50t46 77t16.5 99t-16.5 99.5t-46.5 78t-71 51t-90 18.5
t-90 -18t-70.5 -50t-46 -77.5t-16.5 -99.5t16.5 -99t46.5 -78t71 -51t90 -18zM464 712q-29 0 -45 15.5t-16 43.5q0 29 16 44.5t43 15.5t43.5 -15.5t16.5 -44.5q0 -28 -16 -43.5t-42 -15.5zM280 712q-27 0 -43.5 15.5t-16.5 43.5q0 29 16 44.5t42 15.5q29 0 45 -15.5
t16 -44.5q0 -28 -16 -43.5t-43 -15.5z" />
    <glyph glyph-name="multiply" unicode="&#xd7;" horiz-adv-x="546" 
d="M95 83q-12 11 -12.5 25.5t16.5 31.5l120 122l-120 120q-17 17 -16 32t12 26l6 6q11 12 26 12.5t32 -17.5l116 -122l115 122q17 18 32.5 17.5t26.5 -12.5l5 -6q12 -11 13 -26t-16 -32l-120 -120l120 -122q17 -17 16 -31.5t-13 -25.5l-6 -6q-11 -11 -26 -12t-32 17
l-115 122l-116 -122q-17 -18 -32 -17t-26 12z" />
    <glyph glyph-name="Oslash" unicode="&#xd8;" horiz-adv-x="741" 
d="M503 528q-27 20 -60.5 30.5t-72.5 10.5q-52 0 -94 -18.5t-72 -51t-46 -77.5t-16 -98q0 -43 11 -81t31 -69zM555 476q-89 -100 -159 -178q-30 -33 -58.5 -65t-51 -57t-36.5 -40.5l-14 -15.5q27 -20 61.5 -31t74.5 -11q52 0 94 18.5t72 51t46 77.5t16 97q0 89 -45 154z
M623 547q36 -45 55.5 -101t19.5 -122q0 -72 -24 -133.5t-67.5 -106.5t-103.5 -71t-133 -26q-59 0 -109 16.5t-90 46.5q0 1 -13 -14t-29 -32q-18 -20 -42 -47q-2 -2 -9 0.5t-15 8t-14.5 14t-6.5 19.5q0 10 5 21.5t19 27.5l50 55q-35 44 -53.5 99.5t-18.5 119.5q0 72 24 133.5
t67.5 107t103.5 71.5t133 26q57 0 106.5 -16t89.5 -45l76 85q2 2 9 -0.5t14.5 -8t14 -14t6.5 -19.5q0 -10 -4.5 -21.5t-18.5 -27.5l-42 -46v0z" />
    <glyph glyph-name="Ugrave" unicode="&#xd9;" horiz-adv-x="650" 
d="M324 -12q-130 0 -196.5 69.5t-66.5 205.5v341q0 47 44 47h14q45 0 45 -47v-338q0 -187 161 -187t161 188v337q0 47 44 47h16q43 0 43 -47v-339q0 -136 -67.5 -206.5t-197.5 -70.5zM219 767q-43 26 -43 61q0 17 13.5 28t31.5 11q25 0 48 -17q24 -16 47 -38.5t40 -43.5
t26.5 -36.5t7.5 -18.5t-19 -2t-41.5 8t-54 18.5t-56.5 29.5z" />
    <glyph glyph-name="Uacute" unicode="&#xda;" horiz-adv-x="650" 
d="M324 -12q-130 0 -196.5 69.5t-66.5 205.5v341q0 47 44 47h14q45 0 45 -47v-338q0 -187 161 -187t161 188v337q0 47 44 47h16q43 0 43 -47v-339q0 -136 -67.5 -206.5t-197.5 -70.5zM266 713q-2 3 7.5 18.5t26.5 36.5t39.5 43.5t46.5 38.5q26 17 48 17q19 0 32 -11t13 -28
q0 -35 -42 -61q-27 -18 -56 -29.5t-54 -18.5t-42 -8t-19 2z" />
    <glyph glyph-name="Ucircumflex" unicode="&#xdb;" horiz-adv-x="650" 
d="M324 -12q-130 0 -196.5 69.5t-66.5 205.5v341q0 47 44 47h14q45 0 45 -47v-338q0 -187 161 -187t161 188v337q0 47 44 47h16q43 0 43 -47v-339q0 -136 -67.5 -206.5t-197.5 -70.5zM323 820q-38 -57 -62 -82t-45 -25q-14 0 -23 9t-9 23t9 30t23 32t30.5 31.5t32 27.5
t28 19.5t17.5 8.5q8 -1 30.5 -17t46.5 -38.5t43 -48t19 -45.5q0 -14 -8.5 -23t-22.5 -9q-21 0 -46 25t-63 82z" />
    <glyph glyph-name="Udieresis" unicode="&#xdc;" horiz-adv-x="650" 
d="M324 -12q-130 0 -196.5 69.5t-66.5 205.5v341q0 47 44 47h14q45 0 45 -47v-338q0 -187 161 -187t161 188v337q0 47 44 47h16q43 0 43 -47v-339q0 -136 -67.5 -206.5t-197.5 -70.5zM417 712q-29 0 -45 15.5t-16 43.5q0 29 16 44.5t43 15.5t43.5 -15.5t16.5 -44.5
q0 -28 -16 -43.5t-42 -15.5zM233 712q-27 0 -43.5 15.5t-16.5 43.5q0 29 16 44.5t42 15.5q29 0 45 -15.5t16 -44.5q0 -28 -16 -43.5t-43 -15.5z" />
    <glyph glyph-name="Yacute" unicode="&#xdd;" horiz-adv-x="573" 
d="M338 43q0 -47 -45 -47h-14q-44 0 -44 47v223l-229 343q-1 3 2 9.5t11 14t21 13t31 5.5q31 0 50 -36l166 -264l166 264q12 20 25 28t26 8q17 0 29.5 -5.5t20 -13t11 -14.5t1.5 -9l-228 -343v-223zM220 713q-2 3 7.5 18.5t26.5 36.5t39.5 43.5t46.5 38.5q26 17 48 17
q19 0 32 -11t13 -28q0 -35 -42 -61q-27 -18 -56 -29.5t-54 -18.5t-42 -8t-19 2z" />
    <glyph glyph-name="Thorn" unicode="&#xde;" horiz-adv-x="575" 
d="M290 531q121 0 186 -52.5t65 -151.5q0 -101 -64 -153.5t-191 -52.5h-114v-78q0 -47 -45 -47h-15q-43 0 -43 47v561q0 47 43 47h15q45 0 45 -47v-73h118zM289 204q75 0 112.5 31t37.5 90q0 121 -148 121h-119v-242h117z" />
    <glyph glyph-name="germandbls" unicode="&#xdf;" horiz-adv-x="552" 
d="M347 384q49 -13 83 -34t55.5 -48t31.5 -59t10 -69q0 -39 -14.5 -73.5t-39.5 -59.5t-59.5 -39.5t-73.5 -14.5q-69 0 -103.5 24t-34.5 53q0 11 4.5 19.5t9.5 15t10 10t6 2.5q16 -18 37.5 -30.5t59.5 -12.5q21 0 39.5 8.5t32.5 23t22 33.5t8 41q0 23 -6 43.5t-21.5 38.5
t-41.5 33t-66 25q-31 9 -45 23t-14 40q0 11 3.5 19.5t7.5 15.5q4 8 10 15q67 -1 101.5 20.5t34.5 72.5q0 44 -30 68.5t-81 24.5q-60 0 -91.5 -35t-31.5 -111v-425q0 -25 -12.5 -36t-32.5 -11h-10q-20 0 -32 11t-12 36v420q0 118 57.5 175t165.5 57q47 0 85 -11.5t64.5 -33
t41 -51.5t14.5 -67q0 -128 -142 -147z" />
    <glyph glyph-name="agrave" unicode="&#xe0;" horiz-adv-x="523" 
d="M221 60q32 0 59.5 9.5t47 27t30.5 41.5t11 52v37l-27 -1q-106 -4 -159 -25.5t-53 -70.5q0 -32 24 -51t67 -19zM369 299q0 55 -30.5 84t-88.5 29q-55 0 -88 -24.5t-50 -57.5l-9.5 0.5t-21 5t-21 14.5t-9.5 28q0 17 13 37.5t39 37.5t64.5 28.5t89.5 11.5q103 0 156.5 -50
t53.5 -142v-295q0 -4 -11 -7.5t-25 -3.5q-26 0 -43 16.5t-18 61.5q-27 -39 -72 -61.5t-101 -22.5q-78 0 -121 37.5t-43 99.5q0 84 79.5 122t243.5 41h13v10zM167 609q-43 26 -43 61q0 17 13.5 28t31.5 11q25 0 48 -17q24 -16 47 -38.5t40 -43.5t26.5 -36.5t7.5 -18.5t-19 -2
t-41.5 8t-54 18.5t-56.5 29.5z" />
    <glyph glyph-name="aacute" unicode="&#xe1;" horiz-adv-x="523" 
d="M221 60q32 0 59.5 9.5t47 27t30.5 41.5t11 52v37l-27 -1q-106 -4 -159 -25.5t-53 -70.5q0 -32 24 -51t67 -19zM369 299q0 55 -30.5 84t-88.5 29q-55 0 -88 -24.5t-50 -57.5l-9.5 0.5t-21 5t-21 14.5t-9.5 28q0 17 13 37.5t39 37.5t64.5 28.5t89.5 11.5q103 0 156.5 -50
t53.5 -142v-295q0 -4 -11 -7.5t-25 -3.5q-26 0 -43 16.5t-18 61.5q-27 -39 -72 -61.5t-101 -22.5q-78 0 -121 37.5t-43 99.5q0 84 79.5 122t243.5 41h13v10zM186 555q-2 3 7.5 18.5t26.5 36.5t39.5 43.5t46.5 38.5q26 17 48 17q19 0 32 -11t13 -28q0 -35 -42 -61
q-27 -18 -56 -29.5t-54 -18.5t-42 -8t-19 2z" />
    <glyph glyph-name="acircumflex" unicode="&#xe2;" horiz-adv-x="523" 
d="M221 60q32 0 59.5 9.5t47 27t30.5 41.5t11 52v37l-27 -1q-106 -4 -159 -25.5t-53 -70.5q0 -32 24 -51t67 -19zM369 299q0 55 -30.5 84t-88.5 29q-55 0 -88 -24.5t-50 -57.5l-9.5 0.5t-21 5t-21 14.5t-9.5 28q0 17 13 37.5t39 37.5t64.5 28.5t89.5 11.5q103 0 156.5 -50
t53.5 -142v-295q0 -4 -11 -7.5t-25 -3.5q-26 0 -43 16.5t-18 61.5q-27 -39 -72 -61.5t-101 -22.5q-78 0 -121 37.5t-43 99.5q0 84 79.5 122t243.5 41h13v10zM261 654q-38 -57 -62 -82t-45 -25q-14 0 -23 9t-9 23t9 30t23 32t30.5 31.5t32 27.5t28 19.5t17.5 8.5
q8 -1 30.5 -17t46.5 -38.5t43 -48t19 -45.5q0 -14 -8.5 -23t-22.5 -9q-21 0 -46 25t-63 82z" />
    <glyph glyph-name="atilde" unicode="&#xe3;" horiz-adv-x="523" 
d="M221 60q32 0 59.5 9.5t47 27t30.5 41.5t11 52v37l-27 -1q-106 -4 -159 -25.5t-53 -70.5q0 -32 24 -51t67 -19zM369 299q0 55 -30.5 84t-88.5 29q-55 0 -88 -24.5t-50 -57.5l-9.5 0.5t-21 5t-21 14.5t-9.5 28q0 17 13 37.5t39 37.5t64.5 28.5t89.5 11.5q103 0 156.5 -50
t53.5 -142v-295q0 -4 -11 -7.5t-25 -3.5q-26 0 -43 16.5t-18 61.5q-27 -39 -72 -61.5t-101 -22.5q-78 0 -121 37.5t-43 99.5q0 84 79.5 122t243.5 41h13v10zM142 552q-17 0 -26 9.5t-9 25.5q0 19 6 36.5t16.5 30.5t25 21t30.5 8q27 0 65.5 -19.5t78.5 -55.5q8 26 21 47.5
t30 21.5t26 -9.5t9 -26.5q0 -19 -6 -36t-16.5 -30t-25 -21t-30.5 -8q-28 0 -66.5 19t-77.5 56q-9 -26 -21.5 -47.5t-29.5 -21.5z" />
    <glyph glyph-name="adieresis" unicode="&#xe4;" horiz-adv-x="523" 
d="M221 60q32 0 59.5 9.5t47 27t30.5 41.5t11 52v37l-27 -1q-106 -4 -159 -25.5t-53 -70.5q0 -32 24 -51t67 -19zM369 299q0 55 -30.5 84t-88.5 29q-55 0 -88 -24.5t-50 -57.5l-9.5 0.5t-21 5t-21 14.5t-9.5 28q0 17 13 37.5t39 37.5t64.5 28.5t89.5 11.5q103 0 156.5 -50
t53.5 -142v-295q0 -4 -11 -7.5t-25 -3.5q-26 0 -43 16.5t-18 61.5q-27 -39 -72 -61.5t-101 -22.5q-78 0 -121 37.5t-43 99.5q0 84 79.5 122t243.5 41h13v10zM353 546q-29 0 -45 15.5t-16 43.5q0 29 16 44.5t43 15.5t43.5 -15.5t16.5 -44.5q0 -28 -16 -43.5t-42 -15.5z
M169 546q-27 0 -43.5 15.5t-16.5 43.5q0 29 16 44.5t42 15.5q29 0 45 -15.5t16 -44.5q0 -28 -16 -43.5t-43 -15.5z" />
    <glyph glyph-name="aring" unicode="&#xe5;" horiz-adv-x="523" 
d="M221 60q32 0 59.5 9.5t47 27t30.5 41.5t11 52v37l-27 -1q-106 -4 -159 -25.5t-53 -70.5q0 -32 24 -51t67 -19zM369 299q0 55 -30.5 84t-88.5 29q-55 0 -88 -24.5t-50 -57.5l-9.5 0.5t-21 5t-21 14.5t-9.5 28q0 17 13 37.5t39 37.5t64.5 28.5t89.5 11.5q103 0 156.5 -50
t53.5 -142v-295q0 -4 -11 -7.5t-25 -3.5q-26 0 -43 16.5t-18 61.5q-27 -39 -72 -61.5t-101 -22.5q-78 0 -121 37.5t-43 99.5q0 84 79.5 122t243.5 41h13v10zM259 546q-27 0 -49 9t-37.5 25t-24.5 38t-9 47q0 26 9 47.5t25 38t38.5 25.5t48.5 9q54 0 87 -34t33 -86
q0 -25 -9 -47t-25 -38t-38.5 -25t-48.5 -9zM259 600q27 0 44.5 18.5t17.5 46.5q0 29 -18 48t-44 19t-43.5 -19t-17.5 -48q0 -27 17.5 -46t43.5 -19z" />
    <glyph glyph-name="ae" unicode="&#xe6;" horiz-adv-x="867" 
d="M740 281q-4 63 -39.5 100t-95.5 37t-101.5 -38.5t-50.5 -98.5h287zM221 60q32 0 59.5 9.5t47 27t30.5 41.5t11 52v37l-27 -1q-106 -4 -159 -25.5t-53 -70.5q0 -32 24 -51t67 -19zM369 299q0 55 -30.5 84.5t-88.5 29.5q-55 0 -88 -25t-50 -58l-9.5 0.5t-21 5t-21 14.5
t-9.5 28q0 17 13 37.5t38 37.5t63 28.5t87 11.5q63 0 106 -23t66 -65q30 42 76 65t105 23q52 0 95 -17.5t73.5 -49.5t47 -76.5t16.5 -98.5v-8q-1 -16 -7 -22.5t-23 -6.5h-355q3 -33 16 -60.5t34 -47t50 -30.5t63 -11q63 0 98 24t54 56q0 1 8 -1t17.5 -7t17.5 -15t8 -26
t-13.5 -35t-39.5 -35.5t-64 -27.5t-88 -11q-78 0 -131 30.5t-81 86.5q-26 -51 -79.5 -83t-123.5 -32q-78 0 -121.5 37.5t-43.5 99.5q0 84 79.5 122t243.5 41h13v10z" />
    <glyph glyph-name="ccedilla" unicode="&#xe7;" horiz-adv-x="516" 
d="M282 -13q-54 0 -100 19t-79.5 52.5t-52 80.5t-18.5 102t19 101t52 79.5t79 52.5t100 19t92.5 -14.5t64 -35t37.5 -43.5t12 -40q0 -15 -9 -24.5t-19.5 -14.5t-20 -6t-10.5 1q-17 40 -50 67t-95 27q-34 0 -63 -12.5t-50 -35t-33 -53.5t-12 -68t12 -68.5t33 -54t50 -35.5
t63 -13q61 0 94.5 27t50.5 67q1 2 10.5 1t20 -5.5t19.5 -14.5t9 -26t-12 -39t-37.5 -43.5t-64.5 -35t-92 -14.5zM228 -224q-6 -5 -16 -6t-19 1.5t-14 8.5t-1 15l53 118q8 19 17.5 29t35.5 10h9q20 0 33 -9t13 -26v-5q0 -10 -8.5 -20.5t-23.5 -25.5l-79 -90v0z" />
    <glyph glyph-name="egrave" unicode="&#xe8;" horiz-adv-x="540" 
d="M413 281q-4 63 -40 100t-96 37q-30 0 -55.5 -10t-45.5 -28.5t-33 -43.5t-18 -55h288zM125 214q3 -33 16 -60.5t34 -47t50 -30.5t63 -11q32 0 56 6.5t42 17.5t31 25.5t22 30.5q1 1 9 -1t17.5 -7t17.5 -15t8 -26t-13.5 -35t-40 -35.5t-64.5 -27.5t-87 -11q-57 0 -104 18
t-80 51t-51.5 79.5t-18.5 102.5q0 55 18.5 101.5t51.5 80.5t78 53.5t98 19.5q52 0 94.5 -17.5t73 -49.5t47 -76.5t16.5 -98.5v-8q0 -16 -6.5 -22.5t-23.5 -6.5h-354v0zM169 609q-43 26 -43 61q0 17 13.5 28t31.5 11q25 0 48 -17q24 -16 47 -38.5t40 -43.5t26.5 -36.5
t7.5 -18.5t-19 -2t-41.5 8t-54 18.5t-56.5 29.5z" />
    <glyph glyph-name="eacute" unicode="&#xe9;" horiz-adv-x="540" 
d="M413 281q-4 63 -40 100t-96 37q-30 0 -55.5 -10t-45.5 -28.5t-33 -43.5t-18 -55h288zM125 214q3 -33 16 -60.5t34 -47t50 -30.5t63 -11q32 0 56 6.5t42 17.5t31 25.5t22 30.5q1 1 9 -1t17.5 -7t17.5 -15t8 -26t-13.5 -35t-40 -35.5t-64.5 -27.5t-87 -11q-57 0 -104 18
t-80 51t-51.5 79.5t-18.5 102.5q0 55 18.5 101.5t51.5 80.5t78 53.5t98 19.5q52 0 94.5 -17.5t73 -49.5t47 -76.5t16.5 -98.5v-8q0 -16 -6.5 -22.5t-23.5 -6.5h-354v0zM202 555q-2 3 7.5 18.5t26.5 36.5t39.5 43.5t46.5 38.5q26 17 48 17q19 0 32 -11t13 -28q0 -35 -42 -61
q-27 -18 -56 -29.5t-54 -18.5t-42 -8t-19 2z" />
    <glyph glyph-name="ecircumflex" unicode="&#xea;" horiz-adv-x="540" 
d="M413 281q-4 63 -40 100t-96 37q-30 0 -55.5 -10t-45.5 -28.5t-33 -43.5t-18 -55h288zM125 214q3 -33 16 -60.5t34 -47t50 -30.5t63 -11q32 0 56 6.5t42 17.5t31 25.5t22 30.5q1 1 9 -1t17.5 -7t17.5 -15t8 -26t-13.5 -35t-40 -35.5t-64.5 -27.5t-87 -11q-57 0 -104 18
t-80 51t-51.5 79.5t-18.5 102.5q0 55 18.5 101.5t51.5 80.5t78 53.5t98 19.5q52 0 94.5 -17.5t73 -49.5t47 -76.5t16.5 -98.5v-8q0 -16 -6.5 -22.5t-23.5 -6.5h-354v0zM277 654q-38 -57 -62 -82t-45 -25q-14 0 -23 9t-9 23t9 30t23 32t30.5 31.5t32 27.5t28 19.5t17.5 8.5
q8 -1 30.5 -17t46.5 -38.5t43 -48t19 -45.5q0 -14 -8.5 -23t-22.5 -9q-21 0 -46 25t-63 82z" />
    <glyph glyph-name="edieresis" unicode="&#xeb;" horiz-adv-x="540" 
d="M413 281q-4 63 -40 100t-96 37q-30 0 -55.5 -10t-45.5 -28.5t-33 -43.5t-18 -55h288zM125 214q3 -33 16 -60.5t34 -47t50 -30.5t63 -11q32 0 56 6.5t42 17.5t31 25.5t22 30.5q1 1 9 -1t17.5 -7t17.5 -15t8 -26t-13.5 -35t-40 -35.5t-64.5 -27.5t-87 -11q-57 0 -104 18
t-80 51t-51.5 79.5t-18.5 102.5q0 55 18.5 101.5t51.5 80.5t78 53.5t98 19.5q52 0 94.5 -17.5t73 -49.5t47 -76.5t16.5 -98.5v-8q0 -16 -6.5 -22.5t-23.5 -6.5h-354v0zM371 546q-29 0 -45 15.5t-16 43.5q0 29 16 44.5t43 15.5t43.5 -15.5t16.5 -44.5q0 -28 -16 -43.5
t-42 -15.5zM187 546q-27 0 -43.5 15.5t-16.5 43.5q0 29 16 44.5t42 15.5q29 0 45 -15.5t16 -44.5q0 -28 -16 -43.5t-43 -15.5z" />
    <glyph glyph-name="igrave" unicode="&#xec;" horiz-adv-x="230" 
d="M110 -4q-20 0 -32.5 10t-12.5 37v395q0 27 12.5 37.5t32.5 10.5h10q20 0 32 -10t12 -38v-395q0 -27 -12 -37t-32 -10h-10v0zM10 609q-43 26 -43 61q0 17 13.5 28t31.5 11q25 0 48 -17q24 -16 47 -38.5t40 -43.5t26.5 -36.5t7.5 -18.5t-19 -2t-41.5 8t-54 18.5t-56.5 29.5
z" />
    <glyph glyph-name="iacute" unicode="&#xed;" horiz-adv-x="230" 
d="M110 -4q-20 0 -32.5 10t-12.5 37v395q0 27 12.5 37.5t32.5 10.5h10q20 0 32 -10t12 -38v-395q0 -27 -12 -37t-32 -10h-10v0zM57 555q-2 3 7.5 18.5t26.5 36.5t39.5 43.5t46.5 38.5q26 17 48 17q19 0 32 -11t13 -28q0 -35 -42 -61q-27 -18 -56 -29.5t-54 -18.5t-42 -8
t-19 2z" />
    <glyph glyph-name="icircumflex" unicode="&#xee;" horiz-adv-x="230" 
d="M110 -4q-20 0 -32.5 10t-12.5 37v395q0 27 12.5 37.5t32.5 10.5h10q20 0 32 -10t12 -38v-395q0 -27 -12 -37t-32 -10h-10v0zM118 654q-38 -57 -62 -82t-45 -25q-14 0 -23 9t-9 23t9 30t23 32t30.5 31.5t32 27.5t28 19.5t17.5 8.5q8 -1 30.5 -17t46.5 -38.5t43 -48
t19 -45.5q0 -14 -8.5 -23t-22.5 -9q-21 0 -46 25t-63 82z" />
    <glyph glyph-name="idieresis" unicode="&#xef;" horiz-adv-x="230" 
d="M110 -4q-20 0 -32.5 10t-12.5 37v395q0 27 12.5 37.5t32.5 10.5h10q20 0 32 -10t12 -38v-395q0 -27 -12 -37t-32 -10h-10v0zM212 546q-29 0 -45 15.5t-16 43.5q0 29 16 44.5t43 15.5t43.5 -15.5t16.5 -44.5q0 -28 -16 -43.5t-42 -15.5zM28 546q-27 0 -43.5 15.5
t-16.5 43.5q0 29 16 44.5t42 15.5q29 0 45 -15.5t16 -44.5q0 -28 -16 -43.5t-43 -15.5z" />
    <glyph glyph-name="eth" unicode="&#xf0;" horiz-adv-x="580" 
d="M440 285q-8 15 -23.5 30t-35 26.5t-43 18.5t-48.5 7q-75 0 -115 -38.5t-40 -108.5q0 -72 40.5 -112t107.5 -40q38 0 67 14t49 38.5t30.5 58.5t10.5 73v33v0zM209 495q-19 -11 -32 -7t-20 18l-2 5q-8 14 -4 26.5t24 23.5l75 40q-69 31 -149 35q-3 0 -2 10.5t8.5 23
t23.5 22.5t43 10q40 0 84.5 -12.5t87.5 -38.5l105 57q20 11 32 6.5t20 -18.5l3 -3q19 -29 -21 -50l-38 -20q-14 -8 -25.5 -14t-12.5 -6q28 -26 52 -58.5t42 -72.5t28 -87t10 -102q0 -70 -19 -125t-53 -93t-81.5 -58t-105.5 -20q-55 0 -100 16t-77 46t-49.5 73t-17.5 97
q0 50 17 91.5t48 71t74.5 45.5t95.5 16q57 0 101 -24.5t67 -56.5q-11 63 -42 112t-76 84z" />
    <glyph glyph-name="ntilde" unicode="&#xf1;" horiz-adv-x="561" 
d="M159 408q25 38 65 61.5t95 23.5q48 0 83 -15.5t58 -43t34 -65t11 -82.5v-244q0 -27 -12.5 -37t-31.5 -10h-11q-20 0 -32 10t-12 37v232q0 61 -29 96t-82 35q-48 0 -82.5 -23t-52.5 -61v-279q0 -27 -12.5 -37t-31.5 -10h-11q-20 0 -32 10t-12 37v432q0 2 10.5 6.5
t25.5 4.5q22 0 41 -15.5t21 -62.5zM159 552q-17 0 -26 9.5t-9 25.5q0 19 6 36.5t16.5 30.5t25 21t30.5 8q27 0 65.5 -19.5t78.5 -55.5q8 26 21 47.5t30 21.5t26 -9.5t9 -26.5q0 -19 -6 -36t-16.5 -30t-25 -21t-30.5 -8q-28 0 -66.5 19t-77.5 56q-9 -26 -21.5 -47.5
t-29.5 -21.5z" />
    <glyph glyph-name="ograve" unicode="&#xf2;" horiz-adv-x="568" 
d="M284 -13q-56 0 -102.5 18.5t-79.5 52.5t-51.5 80.5t-18.5 102.5q0 55 18.5 101.5t52 80t80 52t102.5 18.5q55 0 101 -19t79.5 -52.5t52 -80t18.5 -102.5q0 -55 -18.5 -101.5t-52 -80t-79.5 -52t-102 -18.5zM284 68q35 0 64 13t50.5 36t33.5 54t12 68q0 38 -12 69.5
t-33 54.5t-50.5 36t-64.5 13q-34 0 -63.5 -13t-51.5 -35.5t-34 -54t-12 -68.5t12 -68.5t34 -55t51.5 -36.5t63.5 -13zM174 609q-43 26 -43 61q0 17 13.5 28t31.5 11q25 0 48 -17q24 -16 47 -38.5t40 -43.5t26.5 -36.5t7.5 -18.5t-19 -2t-41.5 8t-54 18.5t-56.5 29.5z" />
    <glyph glyph-name="oacute" unicode="&#xf3;" horiz-adv-x="568" 
d="M284 -13q-56 0 -102.5 18.5t-79.5 52.5t-51.5 80.5t-18.5 102.5q0 55 18.5 101.5t52 80t80 52t102.5 18.5q55 0 101 -19t79.5 -52.5t52 -80t18.5 -102.5q0 -55 -18.5 -101.5t-52 -80t-79.5 -52t-102 -18.5zM284 68q35 0 64 13t50.5 36t33.5 54t12 68q0 38 -12 69.5
t-33 54.5t-50.5 36t-64.5 13q-34 0 -63.5 -13t-51.5 -35.5t-34 -54t-12 -68.5t12 -68.5t34 -55t51.5 -36.5t63.5 -13zM229 555q-2 3 7.5 18.5t26.5 36.5t39.5 43.5t46.5 38.5q26 17 48 17q19 0 32 -11t13 -28q0 -35 -42 -61q-27 -18 -56 -29.5t-54 -18.5t-42 -8t-19 2z" />
    <glyph glyph-name="ocircumflex" unicode="&#xf4;" horiz-adv-x="568" 
d="M284 -13q-56 0 -102.5 18.5t-79.5 52.5t-51.5 80.5t-18.5 102.5q0 55 18.5 101.5t52 80t80 52t102.5 18.5q55 0 101 -19t79.5 -52.5t52 -80t18.5 -102.5q0 -55 -18.5 -101.5t-52 -80t-79.5 -52t-102 -18.5zM284 68q35 0 64 13t50.5 36t33.5 54t12 68q0 38 -12 69.5
t-33 54.5t-50.5 36t-64.5 13q-34 0 -63.5 -13t-51.5 -35.5t-34 -54t-12 -68.5t12 -68.5t34 -55t51.5 -36.5t63.5 -13zM286 654q-38 -57 -62 -82t-45 -25q-14 0 -23 9t-9 23t9 30t23 32t30.5 31.5t32 27.5t28 19.5t17.5 8.5q8 -1 30.5 -17t46.5 -38.5t43 -48t19 -45.5
q0 -14 -8.5 -23t-22.5 -9q-21 0 -46 25t-63 82z" />
    <glyph glyph-name="otilde" unicode="&#xf5;" horiz-adv-x="568" 
d="M284 -13q-56 0 -102.5 18.5t-79.5 52.5t-51.5 80.5t-18.5 102.5q0 55 18.5 101.5t52 80t80 52t102.5 18.5q55 0 101 -19t79.5 -52.5t52 -80t18.5 -102.5q0 -55 -18.5 -101.5t-52 -80t-79.5 -52t-102 -18.5zM284 68q35 0 64 13t50.5 36t33.5 54t12 68q0 38 -12 69.5
t-33 54.5t-50.5 36t-64.5 13q-34 0 -63.5 -13t-51.5 -35.5t-34 -54t-12 -68.5t12 -68.5t34 -55t51.5 -36.5t63.5 -13zM169 552q-17 0 -26 9.5t-9 25.5q0 19 6 36.5t16.5 30.5t25 21t30.5 8q27 0 65.5 -19.5t78.5 -55.5q8 26 21 47.5t30 21.5t26 -9.5t9 -26.5q0 -19 -6 -36
t-16.5 -30t-25 -21t-30.5 -8q-28 0 -66.5 19t-77.5 56q-9 -26 -21.5 -47.5t-29.5 -21.5z" />
    <glyph glyph-name="odieresis" unicode="&#xf6;" horiz-adv-x="568" 
d="M284 -13q-56 0 -102.5 18.5t-79.5 52.5t-51.5 80.5t-18.5 102.5q0 55 18.5 101.5t52 80t80 52t102.5 18.5q55 0 101 -19t79.5 -52.5t52 -80t18.5 -102.5q0 -55 -18.5 -101.5t-52 -80t-79.5 -52t-102 -18.5zM284 68q35 0 64 13t50.5 36t33.5 54t12 68q0 38 -12 69.5
t-33 54.5t-50.5 36t-64.5 13q-34 0 -63.5 -13t-51.5 -35.5t-34 -54t-12 -68.5t12 -68.5t34 -55t51.5 -36.5t63.5 -13zM380 546q-29 0 -45 15.5t-16 43.5q0 29 16 44.5t43 15.5t43.5 -15.5t16.5 -44.5q0 -28 -16 -43.5t-42 -15.5zM196 546q-27 0 -43.5 15.5t-16.5 43.5
q0 29 16 44.5t42 15.5q29 0 45 -15.5t16 -44.5q0 -28 -16 -43.5t-43 -15.5z" />
    <glyph glyph-name="oslash" unicode="&#xf8;" horiz-adv-x="568" 
d="M74 -46q-1 -2 -8 0t-15 7t-14 12.5t-6 17.5q0 9 5 20t18 25l38 42q-26 32 -40 73t-14 88q0 53 19 99.5t53 81t79.5 54t98.5 19.5q41 0 76.5 -12t65.5 -32l69 77q2 2 8.5 0t14.5 -7t14 -12.5t6 -17.5q0 -8 -5 -19t-17 -25l-39 -42q26 -33 40.5 -74t14.5 -88
q0 -53 -19 -99.5t-53 -81t-79.5 -54t-98.5 -19.5q-41 0 -76.5 11.5t-65.5 32.5l-70 -77v0zM376 382q-39 30 -89 30q-34 0 -63.5 -13t-50.5 -36t-33 -54.5t-12 -68.5q0 -28 7.5 -53t21.5 -46zM287 68q35 0 64 13t50 36t33 54.5t12 68.5q0 57 -29 100l-219 -241
q19 -14 41 -22.5t48 -8.5z" />
    <glyph glyph-name="ugrave" unicode="&#xf9;" horiz-adv-x="561" 
d="M402 72q-25 -37 -64.5 -60.5t-95.5 -23.5q-48 0 -82.5 15.5t-57.5 42.5t-34 65t-11 83v244q0 27 12 37.5t31 10.5h11q20 0 32 -10t12 -38v-232q0 -63 30 -97.5t85 -34.5q45 0 79 23.5t53 61.5v279q0 27 12 37.5t31 10.5h11q20 0 32 -10t12 -38v-431q0 -2 -10.5 -6.5
t-24.5 -4.5q-11 0 -22 3.5t-19.5 12t-14.5 23t-7 37.5zM167 609q-43 26 -43 61q0 17 13.5 28t31.5 11q25 0 48 -17q24 -16 47 -38.5t40 -43.5t26.5 -36.5t7.5 -18.5t-19 -2t-41.5 8t-54 18.5t-56.5 29.5z" />
    <glyph glyph-name="uacute" unicode="&#xfa;" horiz-adv-x="561" 
d="M402 72q-25 -37 -64.5 -60.5t-95.5 -23.5q-48 0 -82.5 15.5t-57.5 42.5t-34 65t-11 83v244q0 27 12 37.5t31 10.5h11q20 0 32 -10t12 -38v-232q0 -63 30 -97.5t85 -34.5q45 0 79 23.5t53 61.5v279q0 27 12 37.5t31 10.5h11q20 0 32 -10t12 -38v-431q0 -2 -10.5 -6.5
t-24.5 -4.5q-11 0 -22 3.5t-19.5 12t-14.5 23t-7 37.5zM230 555q-2 3 7.5 18.5t26.5 36.5t39.5 43.5t46.5 38.5q26 17 48 17q19 0 32 -11t13 -28q0 -35 -42 -61q-27 -18 -56 -29.5t-54 -18.5t-42 -8t-19 2z" />
    <glyph glyph-name="ucircumflex" unicode="&#xfb;" horiz-adv-x="561" 
d="M402 72q-25 -37 -64.5 -60.5t-95.5 -23.5q-48 0 -82.5 15.5t-57.5 42.5t-34 65t-11 83v244q0 27 12 37.5t31 10.5h11q20 0 32 -10t12 -38v-232q0 -63 30 -97.5t85 -34.5q45 0 79 23.5t53 61.5v279q0 27 12 37.5t31 10.5h11q20 0 32 -10t12 -38v-431q0 -2 -10.5 -6.5
t-24.5 -4.5q-11 0 -22 3.5t-19.5 12t-14.5 23t-7 37.5zM281 654q-38 -57 -62 -82t-45 -25q-14 0 -23 9t-9 23t9 30t23 32t30.5 31.5t32 27.5t28 19.5t17.5 8.5q8 -1 30.5 -17t46.5 -38.5t43 -48t19 -45.5q0 -14 -8.5 -23t-22.5 -9q-21 0 -46 25t-63 82z" />
    <glyph glyph-name="udieresis" unicode="&#xfc;" horiz-adv-x="561" 
d="M402 72q-25 -37 -64.5 -60.5t-95.5 -23.5q-48 0 -82.5 15.5t-57.5 42.5t-34 65t-11 83v244q0 27 12 37.5t31 10.5h11q20 0 32 -10t12 -38v-232q0 -63 30 -97.5t85 -34.5q45 0 79 23.5t53 61.5v279q0 27 12 37.5t31 10.5h11q20 0 32 -10t12 -38v-431q0 -2 -10.5 -6.5
t-24.5 -4.5q-11 0 -22 3.5t-19.5 12t-14.5 23t-7 37.5zM376 546q-29 0 -45 15.5t-16 43.5q0 29 16 44.5t43 15.5t43.5 -15.5t16.5 -44.5q0 -28 -16 -43.5t-42 -15.5zM192 546q-27 0 -43.5 15.5t-16.5 43.5q0 29 16 44.5t42 15.5q29 0 45 -15.5t16 -44.5q0 -28 -16 -43.5
t-43 -15.5z" />
    <glyph glyph-name="yacute" unicode="&#xfd;" horiz-adv-x="498" 
d="M199 -195q-10 0 -20 3.5t-17.5 8t-11.5 9t-3 6.5l80 195q-17 2 -26.5 7.5t-15.5 20.5l-172 402q-2 5 13 17t39 12q21 0 36 -12t27 -44l130 -332l115 330q11 33 26.5 45.5t35.5 12.5q10 0 19.5 -3.5t17 -8t12 -9t3.5 -6.5l-227 -599q-12 -32 -28 -43.5t-33 -11.5zM192 548
q-2 3 7.5 18.5t26.5 36.5t39.5 43.5t46.5 38.5q26 17 48 17q19 0 32 -11t13 -28q0 -35 -42 -61q-27 -18 -56 -29.5t-54 -18.5t-42 -8t-19 2z" />
    <glyph glyph-name="thorn" unicode="&#xfe;" horiz-adv-x="593" 
d="M160 193q3 -27 16 -49.5t33 -39t45 -26t53 -9.5q68 0 109 47t41 124q0 38 -11 69t-30.5 54t-47 35.5t-59.5 12.5q-54 0 -91.5 -26t-57.5 -71v-121zM160 -149q0 -27 -12.5 -37t-31.5 -10h-11q-20 0 -32 10t-12 37v825q0 2 10.5 6.5t25.5 4.5q11 0 22.5 -3.5t20.5 -13
t14.5 -26t5.5 -42.5v-200q29 42 71 66.5t97 24.5q48 0 89.5 -18t71.5 -51t47 -79.5t17 -103.5t-17 -104t-47 -80.5t-72 -51.5t-92 -18q-58 0 -100.5 25t-64.5 59v-220z" />
    <glyph glyph-name="ydieresis" unicode="&#xff;" horiz-adv-x="498" 
d="M199 -195q-10 0 -20 3.5t-17.5 8t-11.5 9t-3 6.5l80 195q-17 2 -26.5 7.5t-15.5 20.5l-172 402q-2 5 13 17t39 12q21 0 36 -12t27 -44l130 -332l115 330q11 33 26.5 45.5t35.5 12.5q10 0 19.5 -3.5t17 -8t12 -9t3.5 -6.5l-227 -599q-12 -32 -28 -43.5t-33 -11.5zM346 546
q-29 0 -45 15.5t-16 43.5q0 29 16 44.5t43 15.5t43.5 -15.5t16.5 -44.5q0 -28 -16 -43.5t-42 -15.5zM162 546q-27 0 -43.5 15.5t-16.5 43.5q0 29 16 44.5t42 15.5q29 0 45 -15.5t16 -44.5q0 -28 -16 -43.5t-43 -15.5z" />
    <glyph glyph-name="dotlessi" unicode="&#x131;" horiz-adv-x="230" 
d="M110 -4q-20 0 -32.5 10t-12.5 37v395q0 27 12.5 37.5t32.5 10.5h10q20 0 32 -10t12 -38v-395q0 -27 -12 -37t-32 -10h-10v0z" />
    <glyph glyph-name="Lslash" unicode="&#x141;" horiz-adv-x="548" 
d="M208 92h273q48 0 48 -44v-4q0 -44 -48 -44h-321q-25 0 -40 15.5t-15 41.5v168l-71 -22q-4 -2 -12 11.5t-8 30.5t11.5 31t47.5 25l32 10v293q0 47 43 47h15q45 0 45 -47v-262l182 56q5 1 12.5 -12t7.5 -30t-12 -31t-47 -25l-143 -44v-164z" />
    <glyph glyph-name="lslash" unicode="&#x142;" horiz-adv-x="336" 
d="M215 42q0 -27 -12 -37t-32 -10h-10q-20 0 -32.5 10t-12.5 37v191q0 1 -12.5 -3t-28.5 -9q-18 -5 -42 -13q-4 -1 -12 13.5t-8 29.5q0 16 11.5 29.5t46.5 24.5q13 4 23 7q8 2 15 4.5t7 1.5v358q0 2 11 6.5t25 4.5q12 0 23 -3.5t20 -13t14.5 -26t5.5 -42.5v-253l89 27
q2 1 5.5 -3t6.5 -10.5t5.5 -14t2.5 -15.5q0 -16 -12 -29.5t-47 -24.5l-50 -15v-222z" />
    <glyph glyph-name="OE" unicode="&#x152;" horiz-adv-x="1031" 
d="M370 -13q-72 0 -132.5 24.5t-103.5 69t-67 106t-24 135.5t24.5 136t68 107t103.5 70t132 25q26 0 50 -3.5t47 -9.5h475q48 0 48 -43v-6q0 -43 -48 -43h-337q37 -32 59.5 -77.5t27.5 -103.5h176q48 0 48 -41v-3q0 -43 -48 -43h-175q-3 -62 -26 -111.5t-63 -84.5h344
q47 0 47 -41v-5q0 -45 -47 -45h-481q-23 -6 -47.5 -9.5t-50.5 -3.5zM371 78q49 0 90 18t70.5 50t46 77t16.5 99t-16.5 99.5t-46.5 78t-71 51t-90 18.5t-90 -18t-70.5 -50t-46 -77.5t-16.5 -99.5t16.5 -99t46.5 -78t71 -51t90 -18z" />
    <glyph glyph-name="oe" unicode="&#x153;" horiz-adv-x="952" 
d="M825 281q-4 63 -40 100t-96 37q-30 0 -55.5 -10t-45.5 -28.5t-33 -43.5t-18 -55h288zM284 68q35 0 64 13t50.5 36t33.5 54t12 68q0 38 -12 69.5t-33 54.5t-50.5 36t-64.5 13q-34 0 -63.5 -13t-51.5 -35.5t-34 -54t-12 -68.5t12 -68.5t34 -55t51.5 -36.5t63.5 -13zM485 95
q-31 -50 -82.5 -79t-118.5 -29q-56 0 -102.5 18.5t-79.5 52.5t-51.5 80.5t-18.5 102.5q0 55 18.5 101.5t52 80t80 52t102.5 18.5q68 0 120 -30t83 -81q31 52 83 81.5t119 29.5q52 0 94.5 -17.5t73 -49.5t47 -76.5t16.5 -98.5v-8q0 -16 -6.5 -22.5t-23.5 -6.5h-354
q3 -33 16 -60.5t34 -47t50 -30.5t63 -11q32 0 56 6.5t42 17.5t31 25.5t22 30.5q1 1 9 -1t17.5 -7t17.5 -15t8 -26t-13.5 -35t-40 -35.5t-64.5 -27.5t-87 -11q-74 0 -128 28t-85 80z" />
    <glyph glyph-name="Scaron" unicode="&#x160;" horiz-adv-x="554" 
d="M275 -13q-58 0 -103.5 12.5t-76.5 32t-47 42t-16 42.5q0 13 7 23.5t15.5 18t16 11.5t8.5 2q28 -41 78 -70t117 -29q68 0 104.5 26.5t36.5 74.5q0 27 -13 45t-35.5 30t-52 20t-61.5 15q-37 9 -74 21t-65.5 33t-46.5 53.5t-18 81.5q0 41 17 75.5t48 59.5t73.5 39t94.5 14
q54 0 95.5 -11.5t69.5 -28.5t42.5 -37t14.5 -38q0 -14 -7 -25t-16 -18.5t-16.5 -11t-8.5 -2.5q-26 37 -71 62t-102 25q-61 0 -97.5 -27t-36.5 -72q0 -27 11.5 -43.5t31.5 -27t48 -17.5t62 -15q41 -9 80 -23t69 -36t48.5 -54.5t18.5 -79.5q0 -90 -64.5 -141.5t-178.5 -51.5z
M282 772q38 57 62.5 82.5t45.5 25.5q14 0 22.5 -9.5t8.5 -23.5q0 -13 -9 -29t-22.5 -32.5t-30.5 -31.5t-32.5 -27.5t-27.5 -20t-17 -8.5q-7 2 -30 18t-47 38.5t-43 47.5t-19 45q0 14 8.5 23.5t22.5 9.5q21 0 45.5 -25.5t62.5 -82.5z" />
    <glyph glyph-name="scaron" unicode="&#x161;" horiz-adv-x="464" 
d="M229 -12q-50 0 -88 9.5t-63.5 24.5t-38.5 33t-13 35q0 12 5.5 20.5t12.5 14.5t13.5 8.5t7.5 1.5q24 -31 64.5 -51.5t97.5 -20.5q51 0 78.5 17.5t27.5 47.5q0 18 -8.5 30t-24 19.5t-38.5 13.5t-53 12q-27 6 -56.5 14t-54.5 23t-41.5 39.5t-16.5 62.5q0 68 52 109.5
t140 41.5q46 0 80.5 -9t58 -23t35 -31t11.5 -34q0 -12 -6 -21t-13.5 -15t-13.5 -8.5t-7 -1.5q-23 30 -59 49t-82 19q-51 0 -77.5 -18t-26.5 -48q0 -16 8 -27t23 -18.5t37.5 -13.5t51.5 -12q28 -6 59 -14.5t57.5 -23.5t43.5 -40t17 -64q0 -69 -53 -110t-147 -41zM227 606
q38 57 62.5 82.5t45.5 25.5q14 0 22.5 -9.5t8.5 -23.5q0 -13 -9 -29t-22.5 -32.5t-30.5 -31.5t-32.5 -27.5t-27.5 -20t-17 -8.5q-7 2 -30 18t-47 38.5t-43 47.5t-19 45q0 14 8.5 23.5t22.5 9.5q21 0 45.5 -25.5t62.5 -82.5z" />
    <glyph glyph-name="Ydieresis" unicode="&#x178;" horiz-adv-x="573" 
d="M338 43q0 -47 -45 -47h-14q-44 0 -44 47v223l-229 343q-1 3 2 9.5t11 14t21 13t31 5.5q31 0 50 -36l166 -264l166 264q12 20 25 28t26 8q17 0 29.5 -5.5t20 -13t11 -14.5t1.5 -9l-228 -343v-223zM379 712q-29 0 -45 15.5t-16 43.5q0 29 16 44.5t43 15.5t43.5 -15.5
t16.5 -44.5q0 -28 -16 -43.5t-42 -15.5zM195 712q-27 0 -43.5 15.5t-16.5 43.5q0 29 16 44.5t42 15.5q29 0 45 -15.5t16 -44.5q0 -28 -16 -43.5t-43 -15.5z" />
    <glyph glyph-name="Zcaron" unicode="&#x17d;" horiz-adv-x="609" 
d="M115 0q-36 0 -51.5 14.5t-15.5 34.5v9q0 11 2 20t7 18.5t13.5 21t20.5 26.5l339 413h-333q-46 0 -46 42v6q0 42 46 42h391q36 0 51 -14t15 -34v-9q0 -23 -11 -41.5t-31 -41.5l-342 -417h353q46 0 46 -42v-6q0 -42 -46 -42h-408v0zM297 772q38 57 62.5 82.5t45.5 25.5
q14 0 22.5 -9.5t8.5 -23.5q0 -13 -9 -29t-22.5 -32.5t-30.5 -31.5t-32.5 -27.5t-27.5 -20t-17 -8.5q-7 2 -30 18t-47 38.5t-43 47.5t-19 45q0 14 8.5 23.5t22.5 9.5q21 0 45.5 -25.5t62.5 -82.5z" />
    <glyph glyph-name="zcaron" unicode="&#x17e;" horiz-adv-x="482" 
d="M76 0q-23 0 -32 11.5t-9 26.5v8q0 16 6.5 26.5t21.5 27.5l252 302h-235q-43 0 -43 36v7q0 36 43 36h321q23 0 32 -11t9 -26v-6q0 -14 -6 -24.5t-21 -27.5l-257 -306h249q43 0 43 -37v-6q0 -37 -43 -37h-331v0zM236 606q38 57 62.5 82.5t45.5 25.5q14 0 22.5 -9.5
t8.5 -23.5q0 -13 -9 -29t-22.5 -32.5t-30.5 -31.5t-32.5 -27.5t-27.5 -20t-17 -8.5q-7 2 -30 18t-47 38.5t-43 47.5t-19 45q0 14 8.5 23.5t22.5 9.5q21 0 45.5 -25.5t62.5 -82.5z" />
    <glyph glyph-name="florin" unicode="&#x192;" horiz-adv-x="413" 
d="M70 351q-24 0 -34 9.5t-10 27.5v7q0 18 10 27.5t34 9.5h60l11 61q15 85 56.5 125.5t105.5 40.5q51 0 80 -19.5t29 -48.5q0 -12 -5 -22t-11 -16.5t-11.5 -10t-5.5 -2.5q-9 13 -26.5 23.5t-42.5 10.5q-31 0 -48 -22.5t-26 -72.5l-9 -47h98q23 0 33 -9.5t10 -28.5v-7
q0 -18 -10 -27t-33 -9h-109l-52 -284q-8 -42 -25.5 -58.5t-39.5 -16.5q-20 0 -33 7t-12 10l61 342h-45z" />
    <glyph glyph-name="circumflex" unicode="&#x2c6;" 
d="M249 654q-38 -57 -62 -82t-45 -25q-14 0 -23 9t-9 23t9 30t23 32t30.5 31.5t32 27.5t28 19.5t17.5 8.5q8 -1 30.5 -17t46.5 -38.5t43 -48t19 -45.5q0 -14 -8.5 -23t-22.5 -9q-21 0 -46 25t-63 82z" />
    <glyph glyph-name="caron" unicode="&#x2c7;" 
d="M250 606q38 57 62.5 82.5t45.5 25.5q14 0 22.5 -9.5t8.5 -23.5q0 -13 -9 -29t-22.5 -32.5t-30.5 -31.5t-32.5 -27.5t-27.5 -20t-17 -8.5q-7 2 -30 18t-47 38.5t-43 47.5t-19 45q0 14 8.5 23.5t22.5 9.5q21 0 45.5 -25.5t62.5 -82.5z" />
    <glyph glyph-name="breve" unicode="&#x2d8;" 
d="M250 546q-25 0 -51.5 11t-49 27.5t-37 36t-14.5 36.5t10 27.5t28 10.5q9 0 22.5 -8.5t29.5 -21.5t32.5 -29t31.5 -32q14 16 29.5 32t31 29t29 21.5t22.5 8.5q18 0 28 -10.5t10 -27.5q0 -18 -15 -37.5t-37.5 -36t-49 -27t-50.5 -10.5z" />
    <glyph glyph-name="dotaccent" unicode="&#x2d9;" 
d="M250 547q-31 0 -48.5 17.5t-17.5 44.5t18 45t49 18q30 0 47.5 -18t17.5 -45t-17.5 -44.5t-48.5 -17.5z" />
    <glyph glyph-name="ring" unicode="&#x2da;" 
d="M249 546q-27 0 -49 9t-37.5 25t-24.5 38t-9 47q0 26 9 47.5t25 38t38.5 25.5t48.5 9q54 0 87 -34t33 -86q0 -25 -9 -47t-25 -38t-38.5 -25t-48.5 -9zM249 600q27 0 44.5 18.5t17.5 46.5q0 29 -18 48t-44 19t-43.5 -19t-17.5 -48q0 -27 17.5 -46t43.5 -19z" />
    <glyph glyph-name="ogonek" unicode="&#x2db;" 
d="M295 -201q-26 0 -35 10.5t-18 28.5l-80 162h59l97 -115q14 -16 22.5 -26.5t8.5 -21.5v-4q0 -17 -12.5 -25.5t-32.5 -8.5h-9v0z" />
    <glyph glyph-name="tilde" unicode="&#x2dc;" 
d="M131 552q-17 0 -26 9.5t-9 25.5q0 19 6 36.5t16.5 30.5t25 21t30.5 8q27 0 65.5 -19.5t78.5 -55.5q8 26 21 47.5t30 21.5t26 -9.5t9 -26.5q0 -19 -6 -36t-16.5 -30t-25 -21t-30.5 -8q-28 0 -66.5 19t-77.5 56q-9 -26 -21.5 -47.5t-29.5 -21.5z" />
    <glyph glyph-name="hungarumlaut" unicode="&#x2dd;" 
d="M280 555q-2 3 7.5 18.5t26.5 36.5t39.5 43.5t46.5 38.5q26 17 48 17q19 0 32 -11t13 -28q0 -35 -42 -61q-27 -18 -56 -29.5t-54 -18.5t-42 -8t-19 2zM83 555q-2 3 7 18.5t26 36.5t40 43.5t47 38.5q26 17 48 17q19 0 32 -11t13 -28q0 -35 -42 -61q-27 -18 -56 -29.5
t-54 -18.5t-42 -8t-19 2z" />
    <glyph glyph-name="Delta" unicode="&#x394;" horiz-adv-x="540" 
d="M413 281q-4 63 -40 100t-96 37q-30 0 -55.5 -10t-45.5 -28.5t-33 -43.5t-18 -55h288zM125 214q3 -33 16 -60.5t34 -47t50 -30.5t63 -11q32 0 56 6.5t42 17.5t31 25.5t22 30.5q1 1 9 -1t17.5 -7t17.5 -15t8 -26t-13.5 -35t-40 -35.5t-64.5 -27.5t-87 -11q-57 0 -104 18
t-80 51t-51.5 79.5t-18.5 102.5q0 55 18.5 101.5t51.5 80.5t78 53.5t98 19.5q52 0 94.5 -17.5t73 -49.5t47 -76.5t16.5 -98.5v-8q0 -16 -6.5 -22.5t-23.5 -6.5h-354v0z" />
    <glyph glyph-name="Delta" unicode="&#x2206;" horiz-adv-x="540" 
d="M413 281q-4 63 -40 100t-96 37q-30 0 -55.5 -10t-45.5 -28.5t-33 -43.5t-18 -55h288zM125 214q3 -33 16 -60.5t34 -47t50 -30.5t63 -11q32 0 56 6.5t42 17.5t31 25.5t22 30.5q1 1 9 -1t17.5 -7t17.5 -15t8 -26t-13.5 -35t-40 -35.5t-64.5 -27.5t-87 -11q-57 0 -104 18
t-80 51t-51.5 79.5t-18.5 102.5q0 55 18.5 101.5t51.5 80.5t78 53.5t98 19.5q52 0 94.5 -17.5t73 -49.5t47 -76.5t16.5 -98.5v-8q0 -16 -6.5 -22.5t-23.5 -6.5h-354v0z" />
    <glyph glyph-name="Omega" unicode="&#x3a9;" horiz-adv-x="561" 
d="M402 89q-25 -37 -64.5 -60.5t-95.5 -23.5q-48 0 -82.5 15.5t-57.5 43t-34 65t-11 82.5v227q0 27 12 37.5t31 10.5h11q20 0 32 -10t12 -38v-212q0 -63 28 -100t87 -37q45 0 79 23.5t53 61.5v226q0 26 5.5 43t14 26.5t19.5 13t23 3.5q14 0 25 -4.5t11 -6.5v-454
q0 -220 -237 -220q-53 0 -92 12t-64.5 30t-38 39t-12.5 39q0 13 6.5 23.5t15 17t15.5 9.5t8 1q12 -21 26 -37t32.5 -27t42.5 -16.5t57 -5.5q73 0 108 32.5t35 108.5v62v0z" />
    <glyph glyph-name="Omega" unicode="&#x2126;" horiz-adv-x="561" 
d="M402 89q-25 -37 -64.5 -60.5t-95.5 -23.5q-48 0 -82.5 15.5t-57.5 43t-34 65t-11 82.5v227q0 27 12 37.5t31 10.5h11q20 0 32 -10t12 -38v-212q0 -63 28 -100t87 -37q45 0 79 23.5t53 61.5v226q0 26 5.5 43t14 26.5t19.5 13t23 3.5q14 0 25 -4.5t11 -6.5v-454
q0 -220 -237 -220q-53 0 -92 12t-64.5 30t-38 39t-12.5 39q0 13 6.5 23.5t15 17t15.5 9.5t8 1q12 -21 26 -37t32.5 -27t42.5 -16.5t57 -5.5q73 0 108 32.5t35 108.5v62v0z" />
    <glyph glyph-name="pi" unicode="&#x3c0;" horiz-adv-x="752" 
d="M376 -13q-73 0 -133.5 25t-104.5 69.5t-68.5 106t-24.5 134.5t25 135t69.5 107t105 70.5t132.5 25.5q73 0 133.5 -25t104 -69.5t68 -106t24.5 -134.5t-25 -135t-69 -107t-104.5 -70.5t-132.5 -25.5zM377 41q60 0 110 20.5t86 58t55.5 89t19.5 114.5q0 61 -20.5 113
t-57 89.5t-86.5 59t-109 21.5q-60 0 -110 -20.5t-86 -58t-55.5 -89t-19.5 -114.5q0 -61 20.5 -113t57 -89.5t86.5 -59t109 -21.5zM393 309q33 0 50 16t17 44t-17.5 43.5t-52.5 15.5h-61v-119h64zM331 172q0 -34 -33 -34h-11q-32 0 -32 34v273q0 20 11 31t29 11h95
q69 0 106 -30t37 -87q0 -58 -35.5 -89t-103.5 -31h-63v-78z" />
    <glyph glyph-name="endash" unicode="&#x2013;" horiz-adv-x="539" 
d="M84 201q-23 0 -33 10.5t-10 27.5v9q0 17 10 27.5t33 10.5h369q23 0 33 -10.5t10 -27.5v-9q0 -17 -10 -27.5t-33 -10.5h-369v0z" />
    <glyph glyph-name="emdash" unicode="&#x2014;" horiz-adv-x="705" 
d="M84 201q-23 0 -33 10.5t-10 27.5v9q0 17 10 27.5t33 10.5h537q23 0 33 -10.5t10 -27.5v-9q0 -17 -10 -27.5t-33 -10.5h-537v0z" />
    <glyph glyph-name="quoteleft" unicode="&#x2018;" horiz-adv-x="216" 
d="M79 412q-19 0 -31 12t-12 35v4q0 13 5 27t19 34l82 127q5 7 15 8.5t19 -1.5t14 -10.5t2 -18.5l-52 -170q-8 -23 -17 -35t-35 -12h-9v0z" />
    <glyph glyph-name="quoteright" unicode="&#x2019;" horiz-adv-x="216" 
d="M74 421q-5 -7 -15 -8.5t-19 1.5t-14 10.5t-2 18.5l53 170q8 24 17 35.5t35 11.5h9q19 0 30.5 -12t11.5 -35v-4q0 -30 -23 -61l-83 -127v0z" />
    <glyph glyph-name="quotesinglbase" unicode="&#x201a;" horiz-adv-x="216" 
d="M66 -120q-5 -7 -15 -8.5t-19 1.5t-14 10.5t-2 18.5l53 170q8 24 17 35.5t35 11.5h9q19 0 30.5 -12t11.5 -35v-4q0 -30 -23 -61l-83 -127v0z" />
    <glyph glyph-name="quotedblleft" unicode="&#x201c;" horiz-adv-x="391" 
d="M253 412q-18 0 -30 12t-12 35v4q0 29 24 61l82 127q6 7 15.5 8.5t18 -1.5t14 -10.5t2.5 -18.5l-53 -170q-7 -24 -16.5 -35.5t-35.5 -11.5h-9v0zM78 412q-18 0 -30 12t-12 35v4q0 15 6.5 30t17.5 31l82 127q6 7 15.5 8.5t18.5 -1.5t14 -10.5t2 -18.5l-53 -170
q-7 -24 -16 -35.5t-35 -11.5h-10v0z" />
    <glyph glyph-name="quotedblright" unicode="&#x201d;" horiz-adv-x="391" 
d="M249 421q-5 -7 -15 -8.5t-19 1.5t-14.5 10.5t-2.5 18.5l54 170q4 12 7.5 21t8.5 14.5t13.5 8.5t21.5 3h10q18 0 29.5 -12t11.5 -35v-4q0 -29 -23 -61l-82 -127v0zM73 421q-5 -7 -14.5 -8.5t-18.5 1.5t-14.5 10.5t-2.5 18.5l54 170q7 24 16 35.5t35 11.5h9q19 0 30.5 -12
t11.5 -35v-4q0 -30 -23 -61l-83 -127v0z" />
    <glyph glyph-name="quotedblbase" unicode="&#x201e;" horiz-adv-x="391" 
d="M241 -120q-5 -7 -15 -8.5t-19 1.5t-14.5 10.5t-2.5 18.5l54 170q4 12 7.5 21t8.5 14.5t13.5 8.5t21.5 3h10q18 0 29.5 -12t11.5 -35v-4q0 -29 -23 -61l-82 -127v0zM65 -120q-5 -7 -14.5 -8.5t-18.5 1.5t-14.5 10.5t-2.5 18.5l54 170q7 24 16 35.5t35 11.5h9
q19 0 30.5 -12t11.5 -35v-4q0 -30 -23 -61l-83 -127v0z" />
    <glyph glyph-name="dagger" unicode="&#x2020;" horiz-adv-x="518" 
d="M207 601q-5 30 8 42t44 12q32 0 44.5 -12t7.5 -42l-27 -179l155 26q29 5 41.5 -9.5t12.5 -42.5q0 -27 -12.5 -42t-41.5 -9q-44 7 -78 13q-15 3 -28.5 5t-24.5 4t-18 3l-7 1q17 -22 23.5 -46.5t4.5 -47.5l-14 -407q-2 -16 -8 -22.5t-21 -6.5h-17q-16 0 -22 6.5t-8 22.5
l-14 407q-2 23 4.5 47.5t23.5 46.5l-156 -26q-29 -6 -41.5 9t-12.5 42q0 29 11.5 43.5t42.5 8.5l155 -26z" />
    <glyph glyph-name="daggerdbl" unicode="&#x2021;" horiz-adv-x="518" 
d="M207 601q-5 30 8 42t44 12q32 0 44.5 -12t7.5 -42l-27 -175l155 26q29 5 41.5 -9.5t12.5 -42.5q0 -27 -12.5 -42t-41.5 -9l-159 27q19 -22 26 -46.5t5 -48.5q-1 -39 -2 -69q-1 -26 -2 -47t-1 -22l133 24q29 6 41.5 -9t12.5 -42q0 -28 -12.5 -42.5t-41.5 -9.5l-135 24
l-7 -218q-2 -16 -8 -22.5t-21 -6.5h-17q-16 0 -22 6.5t-8 22.5l-7 218l-135 -24q-31 -6 -42.5 8.5t-11.5 43.5q0 27 12.5 42t41.5 9l133 -24q0 1 -0.5 22t-1.5 47q-1 30 -3 69q-2 24 5.5 48.5t25.5 46.5l-159 -27q-29 -6 -41.5 9t-12.5 42q0 29 11.5 43.5t42.5 8.5l155 -26z
" />
    <glyph glyph-name="bullet" unicode="&#x2022;" horiz-adv-x="334" 
d="M167 129q-24 0 -44.5 9t-36 24t-24 36t-8.5 45t8.5 45t24 37t36 25t44.5 9t45 -9t36 -25t24 -37t9 -45t-9 -44.5t-24.5 -36t-36 -24.5t-44.5 -9z" />
    <glyph glyph-name="ellipsis" unicode="&#x2026;" horiz-adv-x="667" 
d="M548 -7q-54 0 -54 54v12q0 55 54 55h13q56 0 56 -55v-12q0 -54 -56 -54h-13v0zM326 -7q-54 0 -54 54v12q0 55 54 55h13q55 0 55 -55v-12q0 -54 -55 -54h-13v0zM104 -7q-54 0 -54 54v12q0 55 54 55h13q55 0 55 -55v-12q0 -54 -55 -54h-13v0z" />
    <glyph glyph-name="perthousand" unicode="&#x2030;" horiz-adv-x="1096" 
d="M184 344q-33 0 -61.5 11.5t-49.5 32t-32.5 48t-11.5 59.5v9q0 32 12 60t33 48.5t49.5 32.5t61.5 12q34 0 62.5 -11.5t49.5 -31.5t32.5 -48t11.5 -60v-9q0 -32 -12 -60t-33 -48.5t-50 -32.5t-62 -12zM122 -9q-1 -2 -8.5 -0.5t-16 6.5t-15 13t-6.5 18q0 14 6 25t23 28
l503 579q2 2 9 0.5t15.5 -6t15 -12.5t6.5 -19t-6.5 -24t-21.5 -30l-504 -578v0zM911 -6q-34 0 -62.5 11.5t-49.5 32t-32.5 48t-11.5 59.5v9q0 32 12 60t33 48.5t50 32.5t62 12q34 0 62.5 -11.5t49 -31.5t32 -48t11.5 -60v-9q0 -32 -12 -60t-33 -48.5t-49.5 -32.5t-61.5 -12z
M550 -6q-34 0 -62.5 11.5t-49.5 32t-32.5 48t-11.5 59.5v9q0 32 12 60t33 48.5t50 32.5t62 12t61.5 -11.5t49.5 -31.5t32.5 -48t11.5 -60v-9q0 -32 -12 -60t-33 -48.5t-49.5 -32.5t-61.5 -12zM185 407q35 0 57 24t22 62v15q0 38 -22.5 62.5t-57.5 24.5t-57 -24t-22 -63v-15
q0 -38 22.5 -62t57.5 -24zM912 57q35 0 57 24t22 62v15q0 38 -22.5 62.5t-57.5 24.5t-57 -24t-22 -63v-15q0 -38 22.5 -62t57.5 -24zM551 57q34 0 56.5 24t22.5 62v15q0 38 -22.5 62.5t-57.5 24.5t-57 -24t-22 -63v-15q0 -38 22.5 -62t57.5 -24z" />
    <glyph glyph-name="guilsinglleft" unicode="&#x2039;" horiz-adv-x="315" 
d="M124 244q27 -18 53 -36.5t47 -36.5t34 -33.5t13 -27.5v-4q0 -14 -9.5 -24t-26.5 -10h-2q-16 0 -36.5 11.5t-42 29.5t-42 39t-36.5 40t-26 33.5t-10 18.5t10 18t26 33t36.5 40.5t42 39.5t42 29.5t36.5 11.5h2q17 0 26.5 -10.5t9.5 -24.5v-3q0 -12 -13 -28t-34 -33.5
t-47 -36t-53 -36.5z" />
    <glyph glyph-name="guilsinglright" unicode="&#x203a;" horiz-adv-x="315" 
d="M192 244q-27 18 -53.5 36.5t-47 36t-33.5 33.5t-13 28v3q0 14 9 24.5t26 10.5h1q16 0 37 -11.5t42.5 -29.5t42 -39.5t36.5 -40.5t26 -33t10 -18t-10 -18.5t-26 -33.5t-36.5 -40t-42 -39t-42.5 -29.5t-37 -11.5h-1q-17 0 -26 10t-9 24v4q0 12 13 27.5t33.5 33.5t47 36.5
t53.5 36.5z" />
    <glyph glyph-name="fraction" unicode="&#x2044;" horiz-adv-x="651" 
d="M76 -8q-2 -2 -9.5 -1t-16 5t-15.5 11.5t-7 18.5q0 14 6 25t22 28l516 581q2 2 9.5 1.5t16 -5t15.5 -12t7 -19.5q0 -10 -6.5 -23t-21.5 -30l-516 -580v0z" />
    <glyph glyph-name="fraction" unicode="&#x2215;" horiz-adv-x="651" 
d="M76 -8q-2 -2 -9.5 -1t-16 5t-15.5 11.5t-7 18.5q0 14 6 25t22 28l516 581q2 2 9.5 1.5t16 -5t15.5 -12t7 -19.5q0 -10 -6.5 -23t-21.5 -30l-516 -580v0z" />
    <glyph glyph-name="Euro" unicode="&#x20ac;" horiz-adv-x="628" 
d="M70 366q-22 0 -31 8.5t-9 23.5v8q0 14 9 22.5t31 8.5h58q21 103 89.5 162.5t168.5 59.5q49 0 87.5 -12t65 -30.5t40.5 -41t14 -42.5q0 -15 -8 -25.5t-17.5 -16.5t-18 -8t-9.5 -1q-26 45 -62.5 68.5t-93.5 23.5q-58 0 -99 -36.5t-58 -100.5h191q22 0 30.5 -8.5t8.5 -22.5
v-8q0 -15 -8.5 -23.5t-30.5 -8.5h-201v-12v-60v-9h201q22 0 30.5 -9t8.5 -23v-8q0 -14 -8.5 -23t-30.5 -9h-191q17 -65 59 -102.5t103 -37.5q58 0 93.5 26t59.5 74q1 2 9.5 0t18.5 -8.5t18 -17.5t8 -26q0 -19 -13.5 -42.5t-40 -44t-64.5 -34t-88 -13.5q-106 0 -174 59.5
t-88 166.5h-58q-22 0 -31 9t-9 23v8q0 14 9 23t31 9h50v13v52v16h-50z" />
    <glyph glyph-name="trademark" unicode="&#x2122;" horiz-adv-x="683" 
d="M363 336q-27 0 -27 32v249q0 34 30 34h27q16 0 22.5 -5.5t11.5 -17.5l60 -147l60 147q5 14 12.5 18.5t20.5 4.5h26q30 0 30 -34v-249q0 -15 -6 -23.5t-21 -8.5h-9q-27 0 -27 32v189l-55 -141q-2 -7 -7 -11.5t-25 -4.5t-24 4t-7 12l-56 140v-188q0 -15 -5.5 -23.5
t-19.5 -8.5h-11v0zM48 588q-31 0 -31 29v3q0 28 31 28h211q30 0 30 -28v-3q0 -29 -30 -29h-72v-220q0 -32 -30 -32h-9q-28 0 -28 32v220h-72z" />
    <glyph glyph-name="partialdiff" unicode="&#x2202;" horiz-adv-x="585" 
d="M426 318q-20 44 -57 69t-91 25q-34 0 -61.5 -12t-47 -33.5t-30.5 -51.5t-11 -65q0 -74 40 -118t108 -44q30 0 57 10t48 28.5t33 43.5t12 55v93v0zM427 417q4 42 22 55.5t39 13.5q14 0 25 -4.5t11 -6.5v-440q0 -119 -62 -176.5t-182 -57.5q-53 0 -93.5 12t-67.5 30t-41 39
t-14 39q0 15 7 25.5t15 16.5t15.5 8.5t8.5 0.5q23 -38 62.5 -62.5t104.5 -24.5q148 0 148 148v63q-29 -42 -70.5 -64.5t-98.5 -22.5q-50 0 -91 17t-70.5 48t-46 76t-16.5 100q0 53 17.5 97.5t48 77t72 50.5t90.5 18q59 0 102 -22t65 -54z" />
    <glyph glyph-name="product" unicode="&#x220f;" horiz-adv-x="650" 
d="M481 99q-28 -48 -79 -79.5t-121 -31.5q-115 0 -168 58.5t-53 184.5v374q0 47 45 47h13q46 0 46 -47v-368q0 -87 32.5 -124t105.5 -37q30 0 57.5 10t51 26.5t41 38.5t26.5 46v408q0 47 44 47h14q46 0 46 -47v-599q0 -2 -11 -6.5t-26 -4.5q-12 0 -23.5 4t-20.5 14.5
t-14.5 29t-5.5 47.5v9v0z" />
    <glyph glyph-name="summation" unicode="&#x2211;" horiz-adv-x="588" 
d="M357 409q0 47 42 47h11q42 0 42 -47v-152h71q46 0 46 -40v-4q0 -40 -46 -40h-71v-131q0 -47 -43 -47h-11q-41 0 -41 47v131h-258q-35 0 -50.5 14t-15.5 35v13q0 11 2.5 20t7.5 19.5t12.5 23.5t18.5 31l167 277q15 29 30.5 38t32.5 9q12 0 21.5 -4.5t16.5 -9.5t10.5 -10
t2.5 -7l-223 -368h225v155z" />
    <glyph glyph-name="radical" unicode="&#x221a;" horiz-adv-x="722" 
d="M361 350q6 25 18 50t31.5 45t47.5 32.5t65 12.5h4q35 0 63.5 -12.5t49 -35t32 -53t11.5 -66.5v-6q0 -41 -16 -75t-42.5 -62.5t-60.5 -53.5t-69.5 -48t-70.5 -44.5t-63 -43.5q-28 22 -63 43.5t-70.5 44.5t-69.5 48t-60.5 53.5t-42.5 62.5t-16 75v6q0 36 11.5 66.5t32 53
t49 35t63.5 12.5h4q38 0 65.5 -12.5t47 -32.5t31.5 -45t18 -50z" />
    <glyph glyph-name="infinity" unicode="&#x221e;" horiz-adv-x="430" 
d="M75 560q-48 0 -48 41v5q0 41 48 41h280q48 0 48 -41v-5q0 -41 -48 -41h-87v-473h87q48 0 48 -42v-5q0 -40 -48 -40h-280q-48 0 -48 40v5q0 42 48 42h90v473h-90z" />
    <glyph glyph-name="integral" unicode="&#x222b;" horiz-adv-x="597" 
d="M247 251q-200 29 -200 281v73q0 47 44 47h14q45 0 45 -47v-74q0 -196 149 -196q76 0 112.5 48t36.5 149v73q0 47 45 47h13q44 0 44 -47v-71q0 -254 -200 -283v-209q0 -47 -45 -47h-15q-43 0 -43 47v209v0z" />
    <glyph glyph-name="lessequal" unicode="&#x2264;" horiz-adv-x="230" 
d="M115 584q-28 0 -43.5 14.5t-15.5 40.5q0 27 15.5 41.5t44.5 14.5q58 0 58 -56q0 -55 -59 -55zM110 -196q-20 0 -32.5 10t-12.5 37v587q0 27 12.5 37.5t32.5 10.5h10q20 0 32 -10t12 -38v-587q0 -27 -12 -37t-32 -10h-10v0z" />
    <glyph glyph-name="fi" unicode="&#xfb01;" horiz-adv-x="582" 
d="M463 -4q-20 0 -32.5 10t-12.5 37v395q0 27 12.5 37.5t31.5 10.5h11q20 0 32 -10t12 -38v-395q0 -27 -12 -37t-32 -10h-10v0zM61 400q-23 0 -33 9.5t-10 28.5v7q0 18 10 27t33 9h38v36q0 91 40 134t113 43q55 0 81 -19.5t26 -45.5q0 -21 -10.5 -33t-12.5 -10
q-11 11 -30 19.5t-42 8.5q-37 0 -53.5 -23.5t-16.5 -74.5v-35h101q23 0 33 -9.5t10 -27.5v-7q0 -18 -10 -27.5t-33 -9.5h-98v-357q0 -27 -12 -37t-32 -10h-10q-20 0 -32 10t-12 37v357h-38zM468 584q-28 0 -43.5 14.5t-15.5 40.5q0 27 15.5 41.5t43.5 14.5q59 0 59 -56
q0 -27 -15.5 -41t-43.5 -14z" />
    <glyph glyph-name="fl" unicode="&#xfb02;" horiz-adv-x="582" 
d="M463 -4q-20 0 -32.5 10t-12.5 37v633q0 2 11 6.5t25 4.5q12 0 23 -3.5t20 -13t14.5 -26t5.5 -42.5v-559q0 -27 -12 -37t-32 -10h-10v0zM61 400q-23 0 -33 9.5t-10 28.5v7q0 18 10 27t33 9h38v36q0 91 40 134t113 43q55 0 81 -19.5t26 -45.5q0 -21 -10.5 -33t-12.5 -10
q-11 11 -30 19.5t-42 8.5q-37 0 -53.5 -23.5t-16.5 -74.5v-35h101q23 0 33 -9.5t10 -27.5v-7q0 -18 -10 -27.5t-33 -9.5h-98v-357q0 -27 -12 -37t-32 -10h-10q-20 0 -32 10t-12 37v357h-38z" />
    <glyph glyph-name="apple" horiz-adv-x="758" 
d="M292 26l-123 -52q-13 -5 -25 -3t-19.5 9.5t-9.5 19.5t3 25l51 124l-123 50q-13 6 -20 15.5t-7 20.5t7 20.5t20 15.5l123 51l-51 123q-5 14 -3 25.5t9.5 19t19.5 10t25 -3.5l123 -51l51 124q6 13 15.5 19.5t20.5 6.5t20.5 -6.5t15.5 -19.5l51 -124l123 51q14 6 25.5 3.5
t19 -10t9.5 -19t-3 -25.5l-51 -123l123 -51q14 -6 20.5 -15.5t6.5 -20.5t-6.5 -20.5t-20.5 -15.5l-123 -50l51 -124q5 -13 3 -25t-9.5 -19.5t-19 -9.5t-25.5 3l-123 52l-51 -124q-6 -14 -15.5 -20.5t-20.5 -6.5t-20.5 6.5t-15.5 20.5zM421 88q5 8 14 12.5t18 0.5l101 -40
l-41 100q-3 10 1 18.5t13 13.5l99 42l-99 42q-9 5 -13 14t-1 18l41 101l-101 -41q-10 -3 -18.5 1t-13.5 13l-42 99l-42 -99q-5 -9 -13.5 -13t-18.5 -1l-101 41l41 -101q3 -9 -1 -18t-12 -14l-100 -42l100 -42q8 -5 12 -13.5t1 -18.5l-41 -100l101 40q10 4 18.5 -0.5
t13.5 -12.5l42 -100z" />
    </font>
</defs>
</svg>
